<svg width="17" height="17" viewBox="0 0 17 17" fill="none" xmlns="http://www.w3.org/2000/svg">
<path d="M14.5355 9.03074L10.0355 13.5307C9.89461 13.6716 9.70352 13.7508 9.50426 13.7508C9.305 13.7508 9.1139 13.6716 8.97301 13.5307C8.83211 13.3898 8.75296 13.1987 8.75296 12.9995C8.75296 12.8002 8.83211 12.6091 8.97301 12.4682L12.1924 9.25011H3.00488C2.80597 9.25011 2.61521 9.17109 2.47455 9.03044C2.3339 8.88979 2.25488 8.69902 2.25488 8.50011C2.25488 8.3012 2.3339 8.11043 2.47455 7.96978C2.61521 7.82913 2.80597 7.75011 3.00488 7.75011H12.1924L8.97426 4.53011C8.83336 4.38921 8.75421 4.19812 8.75421 3.99886C8.75421 3.7996 8.83336 3.60851 8.97426 3.46761C9.11515 3.32671 9.30625 3.24756 9.50551 3.24756C9.70476 3.24756 9.89586 3.32671 10.0368 3.46761L14.5368 7.96761C14.6067 8.03738 14.6621 8.12028 14.7 8.21155C14.7378 8.30281 14.7572 8.40065 14.757 8.49943C14.7569 8.59822 14.7373 8.69601 14.6993 8.78718C14.6613 8.87836 14.6056 8.96113 14.5355 9.03074Z" fill="#4D58FF"/>
</svg>
