<svg width="16" height="17" viewBox="0 0 16 17" fill="none" xmlns="http://www.w3.org/2000/svg">
<g id="SVG">
<g id="Group">
<path id="Vector" d="M13.5 3.25H2.50001C2.16849 3.25 1.85055 3.3817 1.61613 3.61612C1.38171 3.85054 1.25001 4.16848 1.25001 4.5V14.5C1.24901 14.738 1.31663 14.9713 1.44476 15.172C1.57289 15.3726 1.75612 15.532 1.97251 15.6313C2.13862 15.709 2.31972 15.7495 2.50314 15.75C2.79665 15.7492 3.08045 15.6448 3.30439 15.455L3.31626 15.445L5.25001 13.75H13.5C13.8315 13.75 14.1495 13.6183 14.3839 13.3839C14.6183 13.1495 14.75 12.8315 14.75 12.5V4.5C14.75 4.16848 14.6183 3.85054 14.3839 3.61612C14.1495 3.3817 13.8315 3.25 13.5 3.25ZM13.25 12.25H5.15626C4.86199 12.25 4.57715 12.3538 4.35189 12.5431L4.34001 12.5531L2.75001 13.9462V4.75H13.25V12.25Z" fill="#4D58FF"/>
</g>
</g>
</svg>
