<svg width="80" height="76" viewBox="0 0 80 76" fill="none" xmlns="http://www.w3.org/2000/svg">
<g id="Icon">
<path id="Oval" fill-rule="evenodd" clip-rule="evenodd" d="M40 75.9C62.0914 75.9 80 58.9092 80 37.95C80 16.9908 62.0914 0 40 0C17.9086 0 0 16.9908 0 37.95C0 58.9092 17.9086 75.9 40 75.9Z" fill="#FEDC5A" fill-opacity="0.1"/>
<path id="Path" d="M50.6283 22H30.5317C28.3984 22.0024 26.6695 23.6069 26.667 25.587V54.2826C26.667 54.5399 26.8155 54.7776 27.0562 54.9053C27.2968 55.0331 27.5928 55.0314 27.8318 54.901L40.58 47.9408L53.3282 54.8995C53.567 55.0299 53.8627 55.0317 54.1032 54.9042C54.3438 54.7768 54.4925 54.5397 54.4931 54.2826V25.587C54.4905 23.6069 52.7617 22.0024 50.6283 22Z" fill="#FEDC5A"/>
</g>
</svg>
