<svg width="180" height="90" viewBox="0 0 180 90" fill="none" xmlns="http://www.w3.org/2000/svg">
<g id="Clip path group">
<mask id="mask0_2013_1520" style="mask-type:luminance" maskUnits="userSpaceOnUse" x="0" y="0" width="180" height="90">
<g id="b">
<path id="Vector" d="M0 0H180V90H0V0Z" fill="white"/>
</g>
</mask>
<g mask="url(#mask0_2013_1520)">
<g id="Group">
<path id="Vector_2" fill-rule="evenodd" clip-rule="evenodd" d="M24.5279 24.764C29.464 24.7432 34.4002 24.7432 39.3363 24.764C39.364 27.9624 39.3709 31.1609 39.3294 34.3663C34.4002 34.4286 29.464 34.4286 24.5348 34.3663C24.4933 31.1609 24.5002 27.9624 24.5279 24.764ZM41.2471 42.584C42.6733 42.5632 44.0925 42.5563 45.5117 42.5632C44.2725 44.1555 42.9017 45.6578 41.3371 46.9317C41.2817 45.4848 41.2748 44.0378 41.2471 42.584ZM41.2748 24.7986C46.1209 24.7155 50.974 24.7155 55.8271 24.7986C55.8063 29.9148 55.8063 35.024 55.8202 40.1332C50.974 40.2163 46.1209 40.2163 41.2748 40.1332C41.2817 35.024 41.2817 29.9078 41.2748 24.7986ZM64.1417 24.8955C66.6133 24.9094 69.0848 24.9024 71.5494 24.9024C71.5286 25.9478 71.5079 26.9932 71.4732 28.0386C70.0056 28.0178 68.5448 28.0178 67.091 28.0248C67.091 28.9594 67.0979 29.9009 67.1048 30.8286C68.5863 30.8286 70.0748 30.8355 71.5563 30.8424C71.5356 31.8809 71.5148 32.9263 71.4802 33.9717C70.0194 33.9509 68.5517 33.9509 67.0979 33.9578C67.0979 34.8924 67.1048 35.834 67.1117 36.7617C68.5863 36.7617 70.054 36.7755 71.5286 36.7617C71.5425 37.7932 71.5494 38.8248 71.5633 39.8563C69.0917 39.8978 66.6133 39.884 64.1417 39.8701C64.1209 34.8786 64.1071 29.8871 64.1417 24.8955ZM73.7786 24.8886C76.1879 24.9094 78.604 24.9094 81.0202 24.8955L81.0409 27.8517C79.5663 27.8724 78.0848 27.8724 76.6102 27.8724C76.5963 28.8486 76.5894 29.8386 76.5894 30.8148C78.064 30.8355 79.5456 30.8424 81.0202 30.8355C81.034 31.8117 81.034 32.8017 81.0409 33.7778C79.5663 33.7986 78.0848 33.8055 76.6102 33.7986C76.5894 35.8063 76.5756 37.8001 76.6309 39.8078C75.6825 39.8494 74.7271 39.8771 73.7717 39.8978C73.7717 34.8994 73.7509 29.894 73.7786 24.8886ZM83.2702 24.8886C85.7071 24.9024 88.1509 24.944 90.5948 24.8401C90.6502 25.8509 90.6709 26.8548 90.6917 27.8586C89.2102 27.8655 87.7217 27.8655 86.2402 27.8586C86.2263 28.8486 86.2263 29.8317 86.2194 30.8286C87.6802 30.8424 89.134 30.8424 90.5948 30.7801C90.6432 31.784 90.6779 32.7878 90.6986 33.7917C89.2102 33.7917 87.7286 33.7986 86.2402 33.7917C86.2332 35.8201 86.2333 37.8417 86.2263 39.8701C85.2433 39.8771 84.2532 39.8771 83.2632 39.8701C83.2632 34.8786 83.2425 29.8871 83.2702 24.8886ZM92.7825 24.8748C93.7102 24.8886 94.6379 24.8955 95.5725 24.9024C95.6071 29.8663 95.5033 34.8301 95.6279 39.7871C94.6725 39.8494 93.7102 39.8771 92.7548 39.8909C92.7686 34.8924 92.7132 29.8871 92.7825 24.8748ZM100.772 25.6917C102.786 24.1755 105.466 24.7155 107.674 25.4424C107.716 26.744 107.736 28.0455 107.75 29.354C106.047 28.544 103.832 27.1871 102.101 28.6894C100.045 30.7871 100.066 35.2663 102.966 36.6371C104.649 37.2809 106.255 36.2424 107.757 35.6194C107.729 36.8863 107.709 38.1532 107.639 39.4201C105.569 39.9532 103.229 40.6871 101.249 39.4686C96.5625 36.6094 96.424 28.9178 100.772 25.6917ZM109.516 24.9024C110.492 24.9024 111.468 24.8955 112.444 24.8886C112.506 29.8871 112.465 34.8994 112.465 39.8978C111.454 39.8771 110.45 39.8424 109.446 39.794C109.592 34.8301 109.467 29.8663 109.516 24.9024ZM114.853 24.9024C117.325 24.9024 119.789 24.9024 122.261 24.9094C122.275 25.9132 122.296 26.924 122.33 27.9209C120.835 28.0317 119.332 28.0248 117.837 28.0178C117.823 28.9455 117.816 29.8663 117.802 30.7871C119.284 30.8286 120.772 30.8424 122.261 30.8494C122.275 31.8532 122.289 32.8571 122.323 33.8609C120.828 33.9648 119.332 33.9648 117.837 33.9509C117.823 34.8786 117.816 35.7994 117.802 36.7201C119.284 36.7617 120.772 36.7755 122.261 36.7824C122.275 37.7863 122.289 38.7901 122.323 39.794C119.824 39.9394 117.325 39.8978 114.819 39.8148C114.895 34.8509 114.832 29.8732 114.853 24.9024ZM124.366 24.8609C125.342 24.9786 126.436 24.6671 127.329 25.1517C129.309 28.0109 130.866 31.154 132.929 33.9648C132.985 30.9463 132.929 27.9278 132.971 24.9163C133.878 24.8955 134.792 24.8817 135.699 24.854C135.851 29.8594 135.74 34.8717 135.761 39.8771C134.833 39.884 133.906 39.8978 132.978 39.9048C131.067 36.9278 129.385 33.7917 127.349 30.8978C127.28 33.8955 127.342 36.8932 127.315 39.8978C126.304 39.8771 125.3 39.8563 124.303 39.8078C124.421 34.8301 124.289 29.8455 124.366 24.8609ZM141.05 25.6294C143.058 24.1755 145.709 24.7086 147.876 25.4771C147.918 26.7994 147.932 28.1286 147.939 29.4509C146.298 28.5163 144.103 27.2009 142.366 28.6409C140.476 30.4478 140.379 33.9371 142.061 35.9171C143.743 37.6201 146.215 36.5609 147.939 35.5224C147.918 36.824 147.904 38.1255 147.835 39.4271C145.772 39.9601 143.439 40.6663 141.459 39.4824C136.73 36.6232 136.64 28.8209 141.05 25.6294ZM148.97 24.8886C150.029 25.0409 151.331 24.5494 152.245 25.2001C153.048 26.5086 153.636 27.9278 154.419 29.2432C155.332 27.8448 155.789 26.0863 157.015 24.9301C157.991 24.8609 158.974 24.8886 159.95 24.8955C158.822 27.6094 157.174 30.0671 156.066 32.7809C155.769 35.1278 156.011 37.5163 155.942 39.8771C154.952 39.884 153.962 39.884 152.972 39.8771C152.709 36.8724 153.74 33.5217 151.947 30.8494C150.874 28.8971 149.856 26.924 148.97 24.8886ZM35.0371 40.1609C36.3386 38.4786 37.8271 36.9417 39.3363 35.4463C39.3502 37.0317 39.3502 38.6101 39.3502 40.1886C37.9102 40.1817 36.4702 40.1817 35.0371 40.1609ZM46.6056 42.5978C49.6794 42.5148 52.7533 42.5148 55.8271 42.5978C55.8063 47.7417 55.8271 52.8855 55.8063 58.0294C52.7463 58.1955 49.6863 58.1955 46.6194 58.0294C46.6056 52.8855 46.6333 47.7417 46.6056 42.5978ZM32.4825 42.7571C34.7325 42.2863 37.0656 42.6324 39.3433 42.5632C39.0317 45.2494 40.3886 48.6832 37.9933 50.684C35.5633 53.0378 33.4586 55.724 30.8833 57.9255C28.7994 58.3686 26.6463 58.0709 24.5417 58.0986C24.5694 55.7378 24.3479 53.3632 24.6456 51.0232C27.0894 48.1363 29.734 45.374 32.4825 42.7571Z" fill="#3C3C3C"/>
<path id="Vector_3" d="M64.1504 56.3488V41.8145H66.0736V54.6339H73.2321V56.3488H64.1504ZM104.711 56.3488V55.0202C104.043 56.0647 103.061 56.5869 101.766 56.5869C100.926 56.5869 100.155 56.3555 99.4505 55.8925C98.7466 55.4301 98.2013 54.7839 97.8145 53.9541C97.4282 53.1247 97.2351 52.1716 97.2351 51.0948C97.2351 50.0435 97.4102 49.0899 97.7605 48.2342C98.1109 47.3781 98.6363 46.722 99.3369 46.266C100.038 45.81 100.821 45.582 101.687 45.582C102.321 45.582 102.886 45.7158 103.382 45.9835C103.878 46.2512 104.281 46.5997 104.592 47.0289V41.8145H106.366V56.3488H104.711ZM82.5014 52.9578L84.3464 53.1863C84.0556 54.2635 83.5168 55.0996 82.7299 55.6945C81.9434 56.2895 80.9389 56.5869 79.7162 56.5869C78.1761 56.5869 76.9548 56.1127 76.0525 55.1642C75.1502 54.2158 74.6991 52.8856 74.6991 51.1738C74.6991 49.4024 75.1553 48.0275 76.0678 47.049C76.9798 46.0705 78.1627 45.5813 79.6165 45.5813C81.0242 45.5813 82.1744 46.0606 83.067 47.0192C83.9592 47.9778 84.4052 49.3262 84.4052 51.0644C84.4052 51.1705 84.402 51.3293 84.3955 51.5407H76.5434C76.6094 52.6973 76.9366 53.583 77.5251 54.1978C78.1131 54.8121 78.8467 55.1192 79.7259 55.1192C80.3804 55.1192 80.9389 54.9475 81.4013 54.6041C81.8642 54.2603 82.2305 53.7115 82.5014 52.9578ZM91.5492 56.2394C92.1602 56.0086 92.7962 55.6121 93.4572 55.05C93.5102 55.5457 93.6293 55.9786 93.8144 56.3488H95.6781C95.4533 55.9458 95.3031 55.5245 95.2274 55.0846C95.1512 54.6452 95.1132 53.5959 95.1132 51.9367V49.5572C95.1132 48.7643 95.0834 48.2158 95.0239 47.9116C94.9182 47.4224 94.7331 47.0176 94.4686 46.6973C94.2042 46.3765 93.7911 46.1105 93.2294 45.8991C92.6677 45.6877 91.9373 45.582 91.0382 45.582C90.1327 45.582 89.3363 45.7059 88.6491 45.9538C87.9614 46.2016 87.4359 46.5551 87.0727 47.0144C86.709 47.4736 86.4478 48.0768 86.289 48.8241L88.0336 49.0615C88.2256 48.3148 88.5217 47.7944 88.9218 47.5004C89.3215 47.2064 89.9412 47.0594 90.7807 47.0594C91.6793 47.0594 92.3568 47.2608 92.8133 47.6638C93.1502 47.9615 93.3187 48.4738 93.3187 49.2007C93.3187 49.2667 93.3155 49.422 93.309 49.6666C92.6278 49.9048 91.5669 50.1097 90.1265 50.2814C89.4189 50.3672 88.89 50.4565 88.5397 50.5493C88.0643 50.6813 87.6365 50.8761 87.2562 51.1336C86.8759 51.3916 86.5685 51.7338 86.334 52.1603C86.0995 52.5863 85.9823 53.0571 85.9823 53.5726C85.9823 54.4518 86.2929 55.1741 86.9142 55.7395C87.5354 56.3045 88.4243 56.5869 89.5809 56.5869C90.2815 56.5869 90.9376 56.4706 91.5492 56.2394ZM118.224 53.1863L116.379 52.9578C116.109 53.7115 115.742 54.2603 115.279 54.6041C114.816 54.9475 114.258 55.1192 113.603 55.1192C112.725 55.1192 111.991 54.8121 111.402 54.1978C110.814 53.583 110.487 52.6973 110.421 51.5407H118.274C118.28 51.3288 118.283 51.1701 118.283 51.0644C118.283 49.3262 117.837 47.9778 116.945 47.0192C116.052 46.0611 114.902 45.582 113.495 45.582C112.041 45.582 110.858 46.0712 109.945 47.0497C109.033 48.0277 108.577 49.4024 108.577 51.1738C108.577 52.8856 109.028 54.2158 109.931 55.1642C110.832 56.1127 112.053 56.5869 113.594 56.5869C114.817 56.5869 115.821 56.2895 116.608 55.6945C117.394 55.0996 117.933 54.2635 118.224 53.1863ZM120.445 56.3488V45.8195H122.051V47.4159C122.461 46.6691 122.839 46.1767 123.186 45.9385C123.533 45.7008 123.915 45.582 124.331 45.582C124.933 45.582 125.544 45.7735 126.166 46.1566L125.55 47.8126C125.114 47.5546 124.678 47.4256 124.242 47.4256C123.852 47.4256 123.502 47.5431 123.191 47.778C122.88 48.0125 122.659 48.3378 122.526 48.7541C122.328 49.3888 122.229 50.0829 122.229 50.8366V56.3488H120.445ZM128.277 52.9288L126.512 53.2057C126.711 54.3226 127.168 55.1654 127.886 55.734C128.603 56.3026 129.645 56.5869 131.013 56.5869C131.84 56.5869 132.58 56.4431 133.234 56.1556C133.889 55.8681 134.39 55.4617 134.737 54.9365C135.084 54.4108 135.257 53.8505 135.257 53.2555C135.257 52.6477 135.115 52.1388 134.831 51.729C134.547 51.3191 134.155 51.0067 133.656 50.7916C133.157 50.577 132.276 50.3012 131.013 49.9643C130.141 49.7261 129.616 49.5738 129.437 49.5074C129.126 49.3823 128.898 49.2238 128.753 49.0318C128.608 48.8471 128.535 48.639 128.535 48.4073C128.535 48.0441 128.71 47.7268 129.06 47.4554C129.411 47.1845 129.996 47.049 130.815 47.049C131.509 47.049 132.046 47.2013 132.426 47.5059C132.806 47.8096 133.036 48.2324 133.115 48.7742L134.86 48.5361C134.748 47.8553 134.543 47.3118 134.246 46.9057C133.948 46.4991 133.487 46.1767 132.863 45.9385C132.238 45.7008 131.513 45.582 130.686 45.582C130.138 45.582 129.624 45.6531 129.145 45.7952C128.665 45.9374 128.287 46.1107 128.01 46.3151C127.639 46.5796 127.347 46.9119 127.132 47.3121C126.917 47.7118 126.81 48.1463 126.81 48.6157C126.81 49.1312 126.94 49.602 127.202 50.028C127.462 50.4545 127.845 50.7884 128.351 51.0298C128.857 51.2711 129.764 51.5571 131.073 51.8875C132.045 52.1321 132.653 52.3336 132.897 52.4919C133.248 52.7236 133.423 53.0409 133.423 53.4438C133.423 53.8934 133.224 54.285 132.827 54.6187C132.431 54.9524 131.823 55.1192 131.004 55.1192C130.191 55.1192 129.558 54.9309 129.105 54.5543C128.652 54.1777 128.376 53.6358 128.277 52.9288ZM76.6424 50.073H82.5215C82.4425 49.1873 82.218 48.5231 81.8478 48.0805C81.2792 47.3928 80.5422 47.049 79.6366 47.049C78.8169 47.049 78.1278 47.3234 77.5694 47.8721C77.0109 48.4209 76.7019 49.1541 76.6424 50.073ZM116.4 50.073H110.52C110.58 49.1545 110.889 48.4207 111.447 47.8715C112.006 47.3231 112.695 47.049 113.515 47.049C114.42 47.049 115.157 47.3928 115.725 48.0805C116.095 48.5236 116.32 49.1878 116.4 50.073ZM99.069 51.0941C99.069 52.4428 99.3533 53.4508 99.9219 54.1181C100.49 54.7855 101.161 55.1192 101.934 55.1192C102.714 55.1192 103.377 54.8003 103.922 54.1625C104.468 53.5251 104.74 52.5519 104.74 51.243C104.74 49.8021 104.463 48.7445 103.908 48.0701C103.352 47.3963 102.668 47.0594 101.855 47.0594C101.062 47.0594 100.399 47.3831 99.8672 48.0307C99.3351 48.6782 99.069 49.6994 99.069 51.0941ZM90.3944 51.7387C91.6895 51.5541 92.661 51.3293 93.309 51.0644V51.7186C93.309 52.5055 93.213 53.1005 93.021 53.5034C92.7699 54.0254 92.3767 54.4368 91.8413 54.7378C91.3059 55.0387 90.6944 55.1891 90.0067 55.1891C89.313 55.1891 88.7862 55.0304 88.4262 54.7128C88.0662 54.3958 87.8862 53.9993 87.8862 53.5235C87.8862 53.2128 87.9685 52.9301 88.1333 52.6754C88.2985 52.4211 88.5332 52.2279 88.8374 52.0959C89.1415 51.9635 89.6603 51.8444 90.3937 51.7387H90.3944Z" fill="#3C3C3C"/>
</g>
</g>
</g>
</svg>
