<svg width="181" height="91" viewBox="0 0 181 91" fill="none" xmlns="http://www.w3.org/2000/svg">
<g clip-path="url(#clip0_18_4526)">
<mask id="mask0_18_4526" style="mask-type:luminance" maskUnits="userSpaceOnUse" x="0" y="0" width="181" height="91">
<path d="M0.03125 0.265625H180.031V90.2656H0.03125V0.265625Z" fill="white"/>
</mask>
<g mask="url(#mask0_18_4526)">
<path fill-rule="evenodd" clip-rule="evenodd" d="M24.5591 25.0296C29.4953 25.0088 34.4314 25.0088 39.3676 25.0296C39.3953 28.2281 39.4022 31.4265 39.3607 34.6319C34.4314 34.6942 29.4953 34.6942 24.566 34.6319C24.5245 31.4265 24.5314 28.2281 24.5591 25.0296ZM41.2784 42.8496C42.7045 42.8288 44.1237 42.8219 45.543 42.8288C44.3037 44.4212 42.933 45.9235 41.3683 47.1973C41.313 45.7504 41.306 44.3035 41.2784 42.8496ZM41.306 25.0642C46.1522 24.9812 51.0053 24.9812 55.8584 25.0642C55.8376 30.1804 55.8376 35.2896 55.8514 40.3988C51.0053 40.4819 46.1522 40.4819 41.306 40.3988C41.313 35.2896 41.313 30.1735 41.306 25.0642ZM64.173 25.1611C66.6445 25.175 69.116 25.1681 71.5807 25.1681C71.5599 26.2135 71.5391 27.2588 71.5045 28.3042C70.0368 28.2835 68.576 28.2835 67.1222 28.2904C67.1222 29.225 67.1291 30.1665 67.136 31.0942C68.6176 31.0942 70.106 31.1012 71.5876 31.1081C71.5668 32.1465 71.546 33.1919 71.5114 34.2373C70.0507 34.2165 68.583 34.2165 67.1291 34.2235C67.1291 35.1581 67.136 36.0996 67.143 37.0273C68.6176 37.0273 70.0853 37.0411 71.5599 37.0273C71.5737 38.0588 71.5807 39.0904 71.5945 40.1219C69.123 40.1635 66.6445 40.1496 64.173 40.1358C64.1522 35.1442 64.1384 30.1527 64.173 25.1611ZM73.8099 25.1542C76.2191 25.175 78.6353 25.175 81.0514 25.1611L81.0722 28.1173C79.5976 28.1381 78.116 28.1381 76.6414 28.1381C76.6276 29.1142 76.6207 30.1042 76.6207 31.0804C78.0953 31.1011 79.5768 31.1081 81.0514 31.1012C81.0653 32.0773 81.0653 33.0673 81.0722 34.0435C79.5976 34.0642 78.116 34.0711 76.6414 34.0642C76.6207 36.0719 76.6068 38.0658 76.6622 40.0735C75.7137 40.115 74.7583 40.1427 73.803 40.1635C73.803 35.165 73.7822 30.1596 73.8099 25.1542ZM83.3014 25.1542C85.7383 25.1681 88.1822 25.2096 90.626 25.1058C90.6814 26.1165 90.7022 27.1204 90.723 28.1242C89.2414 28.1312 87.753 28.1312 86.2714 28.1242C86.2576 29.1142 86.2576 30.0973 86.2507 31.0942C87.7114 31.1081 89.1653 31.1081 90.626 31.0458C90.6745 32.0496 90.7091 33.0535 90.7299 34.0573C89.2414 34.0573 87.7599 34.0642 86.2714 34.0573C86.2645 36.0858 86.2645 38.1073 86.2576 40.1358C85.2745 40.1427 84.2845 40.1427 83.2945 40.1358C83.2945 35.1442 83.2737 30.1527 83.3014 25.1542ZM92.8137 25.1404C93.7414 25.1542 94.6691 25.1612 95.6037 25.1681C95.6383 30.1319 95.5345 35.0958 95.6591 40.0527C94.7037 40.115 93.7414 40.1427 92.786 40.1565C92.7999 35.1581 92.7445 30.1527 92.8137 25.1404ZM100.803 25.9573C102.818 24.4412 105.497 24.9812 107.705 25.7081C107.747 27.0096 107.768 28.3112 107.781 29.6196C106.078 28.8096 103.863 27.4527 102.132 28.955C100.076 31.0527 100.097 35.5319 102.998 36.9027C104.68 37.5465 106.286 36.5081 107.788 35.885C107.761 37.1519 107.74 38.4188 107.671 39.6858C105.601 40.2188 103.261 40.9527 101.281 39.7342C96.5937 36.875 96.4553 29.1835 100.803 25.9573ZM109.547 25.1681C110.523 25.1681 111.499 25.1612 112.475 25.1542C112.538 30.1527 112.496 35.165 112.496 40.1635C111.485 40.1427 110.481 40.1081 109.478 40.0596C109.623 35.0958 109.498 30.1319 109.547 25.1681ZM114.884 25.1681C117.356 25.1681 119.821 25.1681 122.292 25.175C122.306 26.1788 122.327 27.1896 122.361 28.1865C120.866 28.2973 119.364 28.2904 117.868 28.2835C117.854 29.2112 117.848 30.1319 117.834 31.0527C119.315 31.0942 120.804 31.1081 122.292 31.115C122.306 32.1188 122.32 33.1227 122.354 34.1265C120.859 34.2304 119.364 34.2304 117.868 34.2165C117.854 35.1442 117.848 36.065 117.834 36.9858C119.315 37.0273 120.804 37.0412 122.292 37.0481C122.306 38.0519 122.32 39.0558 122.354 40.0596C119.855 40.205 117.356 40.1635 114.85 40.0804C114.926 35.1165 114.864 30.1388 114.884 25.1681ZM124.397 25.1265C125.373 25.2442 126.467 24.9327 127.36 25.4173C129.34 28.2765 130.898 31.4196 132.961 34.2304C133.016 31.2119 132.961 28.1935 133.002 25.1819C133.909 25.1612 134.823 25.1473 135.73 25.1196C135.882 30.125 135.771 35.1373 135.792 40.1427C134.865 40.1496 133.937 40.1635 133.009 40.1704C131.098 37.1935 129.416 34.0573 127.381 31.1635C127.311 34.1612 127.374 37.1588 127.346 40.1635C126.335 40.1427 125.331 40.1219 124.335 40.0735C124.452 35.0958 124.321 30.1112 124.397 25.1265ZM141.081 25.895C143.089 24.4412 145.741 24.9742 147.908 25.7427C147.949 27.065 147.963 28.3942 147.97 29.7165C146.329 28.7819 144.134 27.4665 142.397 28.9065C140.507 30.7135 140.41 34.2027 142.092 36.1827C143.774 37.8858 146.246 36.8265 147.97 35.7881C147.949 37.0896 147.935 38.3912 147.866 39.6927C145.803 40.2258 143.47 40.9319 141.49 39.7481C136.761 36.8888 136.671 29.0865 141.081 25.895ZM149.001 25.1542C150.061 25.3065 151.362 24.815 152.276 25.4658C153.079 26.7742 153.668 28.1935 154.45 29.5088C155.364 28.1104 155.821 26.3519 157.046 25.1958C158.022 25.1265 159.005 25.1542 159.981 25.1611C158.853 27.875 157.205 30.3327 156.098 33.0465C155.8 35.3935 156.042 37.7819 155.973 40.1427C154.983 40.1496 153.993 40.1496 153.003 40.1427C152.74 37.1381 153.771 33.7873 151.978 31.115C150.905 29.1627 149.888 27.1896 149.001 25.1542ZM35.0684 40.4265C36.3699 38.7442 37.8583 37.2073 39.3676 35.7119C39.3814 37.2973 39.3814 38.8758 39.3814 40.4542C37.9414 40.4473 36.5014 40.4473 35.0684 40.4265ZM46.6368 42.8635C49.7107 42.7804 52.7845 42.7804 55.8584 42.8635C55.8376 48.0073 55.8584 53.1512 55.8376 58.295C52.7776 58.4612 49.7176 58.4612 46.6507 58.295C46.6368 53.1512 46.6645 48.0073 46.6368 42.8635ZM32.5137 43.0227C34.7637 42.5519 37.0968 42.8981 39.3745 42.8288C39.063 45.515 40.4199 48.9488 38.0245 50.9496C35.5945 53.3035 33.4899 55.9896 30.9145 58.1912C28.8307 58.6342 26.6776 58.3365 24.573 58.3642C24.6007 56.0035 24.3791 53.6288 24.6768 51.2888C27.1207 48.4019 29.7653 45.6396 32.5137 43.0227Z" fill="#BDBDBD"/>
<path d="M64.1816 56.6144V42.0801H66.1049V54.8995H73.2633V56.6144H64.1816ZM104.742 56.6144V55.2858C104.074 56.3303 103.092 56.8525 101.797 56.8525C100.958 56.8525 100.186 56.6211 99.4817 56.1582C98.7779 55.6957 98.2326 55.0495 97.8458 54.2197C97.4595 53.3903 97.2663 52.4372 97.2663 51.3605C97.2663 50.3091 97.4415 49.3555 97.7918 48.4998C98.1421 47.6437 98.6676 46.9876 99.3682 46.5316C100.069 46.0756 100.852 45.8476 101.718 45.8476C102.352 45.8476 102.918 45.9815 103.413 46.2492C103.909 46.5168 104.312 46.8653 104.623 47.2945V42.0801H106.397V56.6144H104.742ZM82.5326 53.2235L84.3776 53.4519C84.0869 54.5292 83.548 55.3652 82.7611 55.9602C81.9746 56.5551 80.9701 56.8525 79.7475 56.8525C78.2073 56.8525 76.9861 56.3783 76.0838 55.4298C75.1815 54.4814 74.7303 53.1512 74.7303 51.4394C74.7303 49.668 75.1866 48.2931 76.099 47.3146C77.011 46.3362 78.1939 45.8469 79.6478 45.8469C81.0555 45.8469 82.2056 46.3262 83.0983 47.2848C83.9904 48.2435 84.4365 49.5919 84.4365 51.33C84.4365 51.4362 84.4333 51.5949 84.4268 51.8063H76.5746C76.6406 52.9629 76.9679 53.8486 77.5563 54.4634C78.1443 55.0777 78.8779 55.3848 79.7572 55.3848C80.4116 55.3848 80.9701 55.2132 81.4326 54.8698C81.8955 54.5259 82.2617 53.9772 82.5326 53.2235ZM91.5804 56.505C92.1915 56.2742 92.8275 55.8778 93.4884 55.3156C93.5415 55.8113 93.6606 56.2442 93.8456 56.6144H95.7093C95.4846 56.2115 95.3343 55.7901 95.2586 55.3502C95.1825 54.9108 95.1444 53.8615 95.1444 52.2023V49.8228C95.1444 49.0299 95.1146 48.4814 95.0551 48.1772C94.9494 47.688 94.7643 47.2832 94.4999 46.9629C94.2354 46.6422 93.8223 46.3761 93.2606 46.1647C92.6989 45.9533 91.9686 45.8476 91.0695 45.8476C90.1639 45.8476 89.3676 45.9715 88.6803 46.2194C87.9926 46.4672 87.4672 46.8208 87.1039 47.28C86.7403 47.7392 86.479 48.3425 86.3203 49.0897L88.0649 49.3272C88.2569 48.5804 88.5529 48.06 88.9531 47.766C89.3528 47.472 89.9724 47.325 90.812 47.325C91.7106 47.325 92.3881 47.5265 92.8446 47.9294C93.1815 48.2271 93.35 48.7394 93.35 49.4663C93.35 49.5323 93.3467 49.6876 93.3403 49.9322C92.659 50.1704 91.5982 50.3753 90.1577 50.547C89.4502 50.6328 88.9213 50.7222 88.5709 50.8149C88.0956 50.9469 87.6677 51.1417 87.2874 51.3992C86.9071 51.6572 86.5997 51.9995 86.3653 52.4259C86.1308 52.8519 86.0136 53.3227 86.0136 53.8382C86.0136 54.7175 86.3242 55.4398 86.9454 56.0052C87.5666 56.5701 88.4556 56.8525 89.6122 56.8525C90.3128 56.8525 90.9689 56.7362 91.5804 56.505ZM118.255 53.4519L116.411 53.2235C116.14 53.9772 115.773 54.5259 115.31 54.8698C114.847 55.2132 114.289 55.3848 113.635 55.3848C112.756 55.3848 112.022 55.0777 111.434 54.4634C110.846 53.8486 110.519 52.9629 110.453 51.8063H118.305C118.311 51.5945 118.315 51.4357 118.315 51.33C118.315 49.5919 117.868 48.2435 116.976 47.2848C116.084 46.3267 114.934 45.8476 113.526 45.8476C112.072 45.8476 110.889 46.3368 109.976 47.3153C109.064 48.2933 108.608 49.668 108.608 51.4394C108.608 53.1512 109.06 54.4814 109.962 55.4298C110.864 56.3783 112.085 56.8525 113.625 56.8525C114.848 56.8525 115.853 56.5551 116.639 55.9602C117.426 55.3652 117.964 54.5292 118.255 53.4519ZM120.476 56.6144V46.0851H122.082V47.6815C122.492 46.9348 122.87 46.4423 123.217 46.2042C123.564 45.9665 123.946 45.8476 124.363 45.8476C124.964 45.8476 125.575 46.0392 126.197 46.4222L125.582 48.0782C125.146 47.8202 124.709 47.6912 124.273 47.6912C123.883 47.6912 123.533 47.8087 123.222 48.0436C122.912 48.2781 122.69 48.6035 122.558 49.0198C122.359 49.6544 122.26 50.3485 122.26 51.1022V56.6144H120.476ZM128.308 53.1944L126.543 53.4713C126.742 54.5882 127.2 55.431 127.917 55.9996C128.634 56.5682 129.677 56.8525 131.045 56.8525C131.871 56.8525 132.611 56.7088 133.266 56.4212C133.92 56.1337 134.421 55.7273 134.768 55.2021C135.115 54.6764 135.289 54.1161 135.289 53.5212C135.289 52.9133 135.146 52.4045 134.862 51.9946C134.578 51.5848 134.186 51.2723 133.687 51.0572C133.188 50.8426 132.307 50.5668 131.045 50.2299C130.172 49.9918 129.647 49.8395 129.468 49.773C129.158 49.6479 128.93 49.4894 128.784 49.2974C128.639 49.1128 128.566 48.9046 128.566 48.6729C128.566 48.3097 128.741 47.9924 129.092 47.721C129.442 47.4501 130.027 47.3146 130.847 47.3146C131.54 47.3146 132.077 47.4669 132.458 47.7715C132.838 48.0752 133.067 48.498 133.147 49.0398L134.891 48.8017C134.779 48.1209 134.574 47.5775 134.277 47.1713C133.979 46.7647 133.518 46.4423 132.894 46.2042C132.269 45.9665 131.544 45.8476 130.717 45.8476C130.169 45.8476 129.655 45.9187 129.176 46.0609C128.697 46.203 128.318 46.3763 128.041 46.5808C127.671 46.8452 127.378 47.1775 127.163 47.5777C126.948 47.9774 126.841 48.4119 126.841 48.8813C126.841 49.3968 126.972 49.8676 127.233 50.2936C127.494 50.7201 127.877 51.054 128.382 51.2954C128.888 51.5368 129.795 51.8227 131.104 52.1532C132.076 52.3978 132.684 52.5992 132.928 52.7575C133.279 52.9892 133.454 53.3065 133.454 53.7095C133.454 54.159 133.255 54.5506 132.859 54.8843C132.463 55.218 131.855 55.3848 131.035 55.3848C130.222 55.3848 129.589 55.1965 129.136 54.8199C128.684 54.4433 128.408 53.9015 128.308 53.1944ZM76.6736 50.3386H82.5527C82.4738 49.4529 82.2493 48.7888 81.8791 48.3462C81.3105 47.6585 80.5734 47.3146 79.6679 47.3146C78.8482 47.3146 78.1591 47.589 77.6006 48.1378C77.0422 48.6865 76.7332 49.4197 76.6736 50.3386ZM116.431 50.3386H110.552C110.611 49.4202 110.92 48.6863 111.479 48.1371C112.037 47.5888 112.726 47.3146 113.546 47.3146C114.451 47.3146 115.188 47.6585 115.756 48.3462C116.127 48.7892 116.351 49.4534 116.431 50.3386ZM99.1003 51.3598C99.1003 52.7084 99.3846 53.7164 99.9532 54.3838C100.521 55.0512 101.192 55.3848 101.966 55.3848C102.746 55.3848 103.408 55.0659 103.953 54.4281C104.499 53.7907 104.772 52.8175 104.772 51.5086C104.772 50.0677 104.494 49.0101 103.939 48.3358C103.384 47.6619 102.699 47.325 101.886 47.325C101.093 47.325 100.431 47.6488 99.8985 48.2963C99.3663 48.9438 99.1003 49.965 99.1003 51.3598ZM90.4256 52.0043C91.7207 51.8197 92.6923 51.5949 93.3403 51.33V51.9842C93.3403 52.7712 93.2443 53.3661 93.0523 53.769C92.8012 54.291 92.4079 54.7025 91.8726 55.0034C91.3372 55.3043 90.7256 55.4548 90.0379 55.4548C89.3443 55.4548 88.8174 55.296 88.4574 54.9785C88.0974 54.6614 87.9174 54.2649 87.9174 53.7891C87.9174 53.4785 87.9998 53.1958 88.1646 52.941C88.3298 52.6867 88.5645 52.4935 88.8686 52.3615C89.1728 52.2291 89.6916 52.11 90.4249 52.0043H90.4256Z" fill="#BDBDBD"/>
</g>
</g>
<defs>
<clipPath id="clip0_18_4526">
<rect width="180" height="90" fill="white" transform="translate(0.03125 0.265625)"/>
</clipPath>
</defs>
</svg>
