<svg width="180" height="90" viewBox="0 0 180 90" fill="none" xmlns="http://www.w3.org/2000/svg">
<g clip-path="url(#clip0_8_3804)">
<path d="M32.6981 24.9229H33.2866C33.5566 25.0198 33.8405 25.1167 34.062 25.3105C34.5535 25.719 34.7681 26.4182 34.602 27.0275C34.4289 27.7129 33.7781 28.2459 33.072 28.2667C32.5043 28.3013 31.9366 28.0244 31.6112 27.5605C31.1958 26.9929 31.2097 26.1552 31.632 25.5944C31.8881 25.2413 32.2897 25.0336 32.6981 24.9229ZM6.4043 31.0221C6.51507 30.2675 7.2143 29.6375 7.98968 29.679C8.75814 29.6582 9.45737 30.309 9.53353 31.0705C9.6166 31.7282 9.22891 32.4067 8.6266 32.6767C8.10045 32.9259 7.44276 32.8359 6.99276 32.4759C6.68122 32.2336 6.4943 31.8667 6.41122 31.4859V31.0221H6.4043Z" fill="#3C3C3C"/>
<path fill-rule="evenodd" clip-rule="evenodd" d="M39.7321 40.3962C39.8567 40.3962 39.9952 40.4101 40.1128 40.3408L40.0713 40.4031C41.3867 40.507 42.6052 41.3308 43.2144 42.5008C43.699 43.4077 43.789 44.5085 43.4775 45.4847C43.3209 45.9838 43.0656 46.4464 42.7266 46.8448C42.3877 47.2432 41.972 47.5694 41.5044 47.8039C40.8882 48.1224 40.1959 48.2331 39.5105 48.2262C38.6798 48.1501 37.8698 47.8454 37.2328 47.2985C36.3813 46.5854 35.8413 45.4985 35.8413 44.3839C35.8136 43.4008 36.1805 42.4108 36.8382 41.677C37.2075 41.2772 37.6548 40.9572 38.1525 40.737C38.6502 40.5167 39.1878 40.4007 39.7321 40.3962ZM39.1644 41.7947C37.9875 42.037 37.0944 43.1931 37.1636 44.3908C37.1705 45.6854 38.3059 46.8554 39.6005 46.8831C40.4452 46.9385 41.2898 46.537 41.8021 45.8654C42.2244 45.3047 42.4113 44.5639 42.2867 43.8716C42.2172 43.4683 42.0529 43.0873 41.8074 42.7599C41.5618 42.4325 41.2421 42.1682 40.8744 41.9885C40.3552 41.7254 39.7321 41.6562 39.1644 41.7947Z" fill="#3C3C3C"/>
<path d="M22.0158 25.9411C23.0612 25.6988 24.1828 25.7888 25.1728 26.2111C26.2389 26.6611 27.1389 27.4988 27.6789 28.5234C28.1497 29.4096 28.3435 30.4411 28.2328 31.445C28.0597 31.7773 27.8105 32.0611 27.6997 32.428C27.5197 32.8226 27.5058 33.2588 27.4505 33.6811C26.9441 34.4333 26.2559 35.0454 25.4497 35.4603C24.2312 36.0626 22.7705 36.1665 21.4897 35.7026C21.1366 35.5573 20.7835 35.4119 20.4581 35.218C20.1812 35.0657 19.9666 34.8303 19.7174 34.6434C18.4297 33.4665 17.8274 31.6111 18.1805 29.908C17.5505 30.005 16.8789 29.6934 16.5881 29.1188C16.3112 28.6065 16.3666 27.935 16.7335 27.478C17.0728 27.035 17.6681 26.8134 18.2081 26.9242C18.6443 27.0003 19.0181 27.2842 19.2397 27.665C19.9666 26.8134 20.9428 26.1903 22.0158 25.9411ZM22.6528 27.1803C21.4274 27.3465 20.3266 28.1634 19.8005 29.278C19.3851 30.1365 19.3158 31.1542 19.6135 32.0542C19.889 32.8985 20.4526 33.619 21.2058 34.0896C22.092 34.6434 23.2135 34.8096 24.2174 34.505C25.0951 34.2487 25.8502 33.683 26.3428 32.9126C26.8135 32.1788 27.0212 31.265 26.8966 30.3996C26.7581 29.2988 26.0935 28.288 25.152 27.7065C24.4066 27.2429 23.5218 27.0566 22.6528 27.1803ZM18.582 51.6673C18.5958 51.6534 18.6235 51.6326 18.6374 51.6188C19.0805 51.7365 19.5512 51.7226 19.9874 51.875C20.5205 52.0757 21.0397 52.318 21.462 52.6988C21.8497 53.0588 22.2512 53.4257 22.5005 53.9034C23.352 55.2534 23.3312 57.0603 22.5628 58.438C22.0778 59.2883 21.3329 59.9605 20.4374 60.3557C19.3366 60.8403 18.042 60.868 16.9274 60.4111C15.9918 60.0269 15.2085 59.3458 14.6981 58.4726C13.7497 56.908 13.9297 54.7757 15.0789 53.3634C15.3766 53.0034 15.7228 52.6919 16.1035 52.4288C16.8305 51.9373 17.7097 51.6811 18.582 51.6673ZM17.9866 53.2803C17.3081 53.4326 16.6781 53.8203 16.2558 54.3742C15.8266 54.928 15.5981 55.6342 15.6328 56.3334C15.6605 57.2196 16.1243 58.0642 16.8305 58.5903C17.4605 59.075 18.3051 59.2826 19.0874 59.1511C19.8281 59.0334 20.5205 58.6319 20.9705 58.0365C21.5174 57.3442 21.732 56.4096 21.5312 55.5511C21.3235 54.5819 20.5897 53.7442 19.662 53.398C19.1289 53.1973 18.5405 53.1626 17.9866 53.2803Z" fill="#3C3C3C"/>
<path fill-rule="evenodd" clip-rule="evenodd" d="M36.2635 29.6866C37.0596 29.3404 38.0081 29.375 38.7766 29.7765C39.4896 30.1435 40.0435 30.815 40.2581 31.5904C40.445 32.2412 40.3896 32.9542 40.1266 33.5773C40.7773 33.425 41.4766 33.4942 42.0719 33.8058C42.792 34.1727 43.332 34.8858 43.4912 35.675C43.6781 36.5404 43.4081 37.4958 42.792 38.1327C42.2935 38.6589 41.5873 38.9704 40.8673 38.9912C40.715 39.4827 40.445 39.9327 40.1196 40.3273C40.0089 40.3966 39.8704 40.3827 39.7389 40.3827C38.652 40.3827 37.5719 40.8673 36.8381 41.6704C36.1804 42.4042 35.8066 43.3873 35.8412 44.3773C35.8412 45.4919 36.3812 46.5789 37.2327 47.2919C37.8696 47.8389 38.6796 48.1435 39.5104 48.2196C40.2512 48.9327 40.7912 49.8742 40.9435 50.9058C41.1096 51.9442 40.9227 53.0381 40.3966 53.945C39.8405 54.9078 38.9666 55.647 37.925 56.0358C36.8796 56.4235 35.6889 56.4027 34.6504 55.9942C34.5396 55.4335 34.2073 54.935 33.7643 54.5889C33.3004 54.2635 32.7189 54.0904 32.1512 54.1665C31.2096 54.2289 30.4066 54.9904 30.1781 55.8904C29.8735 55.9942 29.5689 56.0912 29.2573 56.1742C29.8596 57.3165 29.7904 58.7773 29.0566 59.8435C28.7512 60.297 28.3459 60.6745 27.8719 60.947C27.3978 61.2194 26.8676 61.3795 26.322 61.415H25.7266C25.3804 61.3527 25.0343 61.2835 24.7089 61.1381C23.6012 60.6742 22.7496 59.615 22.5696 58.4242C23.3381 57.0465 23.3589 55.2396 22.5073 53.8896C22.2581 53.4119 21.8566 53.045 21.4689 52.685C21.0466 52.3042 20.5204 52.055 19.9943 51.8612C19.5581 51.7089 19.0873 51.7227 18.6443 51.605C18.9143 51.0927 18.9558 50.4835 18.7481 49.9435C19.0943 49.5973 19.4404 49.2442 19.7935 48.905C21.3789 50.615 23.2758 52.0065 25.2766 53.1835C25.2904 54.0489 25.2696 54.9142 25.2696 55.7727C24.785 55.9735 24.3558 56.3335 24.1135 56.8042C23.7881 57.3996 23.7604 58.1404 24.0304 58.7635C24.2312 59.2135 24.5773 59.6012 25.0066 59.8365C25.6643 60.2035 26.5089 60.2173 27.1735 59.8573C28.0735 59.3796 28.5166 58.2373 28.2466 57.2681C28.0527 56.5965 27.5266 56.0635 26.9312 55.7173C26.9312 54.8727 26.9035 54.0281 26.945 53.1904C27.8796 52.6712 28.7727 52.0689 29.6312 51.4389C30.5796 50.7258 31.4866 49.9573 32.2966 49.0919C32.6704 49.4104 33.0304 49.7427 33.3973 50.0681C33.0235 50.7881 32.9058 51.6396 33.0996 52.4289C33.3073 53.3081 33.8889 54.0904 34.6712 54.5404C35.592 55.0873 36.7827 55.1358 37.7519 54.6789C38.1597 54.4884 38.5245 54.2171 38.8244 53.8816C39.1243 53.546 39.3529 53.1531 39.4966 52.7266C39.7458 52.0066 39.7319 51.1966 39.4619 50.4766C39.2895 50.025 39.0214 49.6161 38.676 49.2779C38.3307 48.9397 37.9163 48.6803 37.4612 48.5173C36.4989 48.1642 35.3843 48.3096 34.5258 48.8635C34.145 48.5242 33.7643 48.185 33.3835 47.8389C34.1589 46.7865 34.7958 45.6096 35.0796 44.3289C35.3358 43.2004 35.315 41.9958 34.865 40.9158L36.3812 39.815C36.935 40.1612 37.6481 40.2512 38.2643 40.0227C39.012 39.7596 39.5796 39.0535 39.6627 38.2573C39.6696 37.8696 40.0712 37.5442 40.452 37.6412C40.9504 37.7589 41.5112 37.5996 41.8504 37.205C42.2519 36.7689 42.335 36.0696 42.0304 35.5504C41.7189 34.9827 41.0127 34.6989 40.3966 34.8719C39.8289 34.2765 39.2612 33.6881 38.7004 33.0927C38.9081 32.6704 38.9358 32.1581 38.7143 31.7427C38.4443 31.1819 37.7796 30.8496 37.1704 30.9673C36.4989 31.0642 35.9589 31.7012 35.9658 32.3796C35.945 33.0442 36.4435 33.6812 37.0943 33.8196C37.3643 33.8889 37.6343 33.8473 37.8973 33.785C38.4512 34.3665 39.0119 34.9481 39.5589 35.5296C39.4619 35.7719 39.3373 36.0489 39.0673 36.1389C38.8389 36.2358 38.5966 36.1527 38.3889 36.0419C37.6412 35.7027 36.7066 35.855 36.1043 36.4089C35.5366 36.9073 35.2873 37.7104 35.4396 38.4512L33.9858 39.5104C33.3281 38.7766 32.4696 38.2158 31.5143 37.9596C30.2819 37.6204 28.9112 37.7589 27.7896 38.3889C27.1458 38.7212 26.6196 39.2335 26.1212 39.7458C25.8096 39.455 25.5327 39.1296 25.1935 38.8735C24.3281 38.1812 23.2273 37.7727 22.1127 37.7796C21.0743 37.7658 20.0289 38.0842 19.1773 38.6866C19.0389 38.7904 18.9004 38.8942 18.755 38.9981C18.4227 38.6242 18.0558 38.2781 17.7235 37.8973C18.0904 37.3296 18.2219 36.6165 18.0973 35.9589C17.9589 35.1142 17.3912 34.3596 16.6227 33.9789C16.0281 33.6767 15.3435 33.6028 14.6981 33.7712C13.8466 33.9858 13.1266 34.6365 12.8081 35.4535C12.5796 36.0142 12.5658 36.6442 12.725 37.2189C12.2404 37.475 11.7558 37.7242 11.2712 37.9735C10.8904 37.6135 10.3573 37.3989 9.83118 37.4681C9.17349 37.5235 8.57118 38.0012 8.35656 38.6242C8.10733 39.3096 8.32887 40.1335 8.89657 40.5904C9.40887 41.0196 10.1843 41.1304 10.7658 40.7842C11.3958 40.4104 11.9081 39.6835 11.7489 38.9219C12.2266 38.6519 12.725 38.4165 13.2096 38.1604C13.6458 38.7004 14.2758 39.0881 14.9681 39.185C15.4735 39.2681 15.9927 39.185 16.4704 38.9981C16.8373 39.3858 17.2043 39.7735 17.5712 40.1542C17.6127 40.2096 17.7166 40.2719 17.6543 40.3481C17.1831 41.1775 16.9552 42.1228 16.9966 43.0758C17.0519 44.6889 17.7235 46.2258 18.6512 47.5273C18.6789 47.5827 18.7758 47.6589 18.6927 47.7142C18.3189 48.095 17.9381 48.4689 17.5573 48.8427C16.6158 48.4966 15.4804 49.0296 15.1343 49.9642C14.7396 50.8781 15.2035 52.0066 16.0966 52.4289C15.7158 52.6989 15.3696 53.0104 15.0719 53.3635C14.1443 52.7266 13.5835 51.5912 13.6735 50.4627C13.6873 50.075 13.8189 49.715 13.9227 49.3481C13.9089 49.3412 13.8881 49.3342 13.8812 49.3273L13.9158 49.265C14.1789 49.2719 14.3935 49.0989 14.6081 48.9742C15.6812 48.3373 16.4012 47.195 16.595 45.9696C16.7058 45.1319 16.5881 44.2527 16.2073 43.4912C15.7435 42.4873 14.8573 41.6981 13.8189 41.3312C12.8005 40.9585 11.678 40.9907 10.6827 41.4212C10.2258 41.6358 9.79656 41.8989 9.42964 42.2519C8.97671 42.1634 8.54914 41.9753 8.17794 41.701C7.80674 41.4268 7.5012 41.0735 7.28349 40.6666C6.86118 39.8842 6.79887 38.9081 7.1381 38.0842C7.51195 37.1427 8.37041 36.4019 9.36733 36.1942C10.0112 36.0489 10.6896 36.1389 11.285 36.4019C11.2919 35.4812 11.6243 34.5673 12.2058 33.8542C12.7666 33.1619 13.5627 32.6635 14.435 32.4627C15.4389 32.2273 16.5258 32.3865 17.4119 32.9058C18.2219 33.3696 18.8519 34.1242 19.1912 34.9896L19.7104 34.6365C19.9596 34.8235 20.1743 35.0589 20.4512 35.2112C20.7766 35.4119 21.1296 35.5504 21.4827 35.6958C22.7635 36.1596 24.2243 36.0558 25.4427 35.4535C26.2489 35.0385 26.9372 34.4265 27.4435 33.6742C27.4712 34.5742 27.845 35.4604 28.4889 36.0904C29.1466 36.7066 30.0396 37.0804 30.9466 37.0527C32.0612 37.0458 33.1273 36.4365 33.7296 35.5019C34.0135 35.7304 34.2696 35.9866 34.5466 36.2289C34.8581 35.675 35.3427 35.2319 35.8966 34.9273C35.5019 34.6781 35.1489 34.3527 34.9066 33.9512C34.4219 33.1966 34.325 32.2135 34.6366 31.3689C34.9273 30.635 35.5227 29.9981 36.2635 29.6866ZM25.8235 35.9658C25.2973 36.0489 24.8612 36.5266 24.8404 37.0666C24.8127 37.4473 24.9789 37.835 25.2766 38.0704C25.6504 38.3819 26.225 38.4304 26.6404 38.1673C27.035 37.9319 27.2704 37.4612 27.215 37.0042C27.1596 36.3396 26.4743 35.8273 25.8235 35.9658ZM31.0504 51.2381C30.6143 51.3489 30.2681 51.7365 30.185 52.1727C30.1019 52.6158 30.2819 53.0865 30.6489 53.3496C31.0989 53.7027 31.805 53.6473 32.2066 53.2389C32.5458 52.9066 32.6496 52.3596 32.4627 51.9235C32.2481 51.3904 31.6112 51.0719 31.0504 51.2381ZM131.366 36.8104C132.453 36.8035 133.533 36.8104 134.62 36.8104C134.613 42.5012 134.633 48.1989 134.613 53.8896C133.56 53.8758 132.501 53.8896 131.449 53.8827C131.428 53.3842 131.435 52.8789 131.421 52.3804C130.916 53.2181 130.078 53.8689 129.116 54.0835C127.703 54.4089 126.139 54.1596 124.962 53.2942C124.09 52.6642 123.473 51.7435 123.086 50.7466C122.58 49.4727 122.47 48.0742 122.56 46.7173C122.657 45.3812 123.017 44.0312 123.813 42.9373C124.47 42.0235 125.481 41.3589 126.589 41.1512C127.697 40.9435 128.908 41.0404 129.891 41.6219C130.48 41.9612 130.957 42.4527 131.366 42.9858V36.8104ZM128.216 43.9135C127.731 43.9827 127.26 44.1696 126.9 44.5089C126.443 44.9242 126.187 45.5127 126.049 46.1012C125.89 46.8212 125.855 47.5619 125.91 48.2958C125.987 49.265 126.347 50.255 127.08 50.9127C127.877 51.6466 129.178 51.7158 130.064 51.1066C130.632 50.7119 131.04 50.1166 131.262 49.4589C131.463 48.8496 131.511 48.1989 131.483 47.5619C131.456 46.8281 131.366 46.0804 131.075 45.4019C130.867 44.9035 130.521 44.4535 130.043 44.1904C129.483 43.8789 128.825 43.8304 128.216 43.9135Z" fill="#3C3C3C"/>
<path d="M105.904 37.0386C106.693 36.817 107.586 37.2601 107.897 38.0147C108.195 38.6863 107.994 39.5309 107.42 39.9947C106.88 40.4586 106.042 40.514 105.44 40.1332C104.914 39.8147 104.588 39.1917 104.637 38.5824C104.664 37.8694 105.204 37.2117 105.904 37.0386ZM91.4551 37.0386H103.467C103.474 38.0147 103.467 38.9909 103.467 39.967H94.9858V43.7955H102.4V46.7724H94.9858C94.9858 49.1401 94.9928 51.5147 94.9789 53.8824C93.802 53.8824 92.632 53.8755 91.462 53.8824C91.4482 48.2678 91.462 42.6532 91.4551 37.0386ZM114.1 41.8017C114.973 41.1509 116.101 40.9986 117.16 41.0332C118.206 41.0678 119.286 41.4278 120.006 42.217C120.574 42.8332 120.92 43.6363 121.024 44.4601C121.086 44.8963 121.065 45.3463 121.065 45.7894V53.8894H117.756C117.749 51.2517 117.763 48.614 117.749 45.9832C117.714 45.4363 117.659 44.8409 117.299 44.3978C116.918 43.9755 116.309 43.8786 115.769 43.8578C115.056 43.8301 114.28 43.9824 113.768 44.5086C113.221 45.0694 113.076 45.8863 113.069 46.6409C113.062 49.057 113.069 51.4732 113.069 53.8894H109.767C109.767 49.7217 109.753 45.554 109.774 41.3863C110.826 41.3932 111.871 41.3863 112.924 41.3863C112.93 41.9747 112.917 42.5563 112.93 43.1447C113.242 42.6394 113.609 42.1478 114.1 41.8017Z" fill="#3C3C3C"/>
<path fill-rule="evenodd" clip-rule="evenodd" d="M139.59 41.4626C140.428 41.1442 141.342 41.0334 142.235 41.0542C143.426 41.0611 144.644 41.3519 145.607 42.0788C146.465 42.7157 147.054 43.6503 147.4 44.6473C147.829 45.8865 147.947 47.2019 147.954 48.5034H139.341C139.383 49.1749 139.535 49.8534 139.916 50.4211C140.269 50.9611 140.816 51.3765 141.453 51.515C142.124 51.6603 142.851 51.605 143.46 51.2796C143.897 51.065 144.236 50.6634 144.367 50.1926H147.774C147.455 51.2865 146.839 52.318 145.932 53.0242C144.935 53.8273 143.647 54.208 142.374 54.208C141.134 54.2219 139.847 54.0349 138.753 53.4257C137.86 52.9342 137.16 52.138 136.738 51.2103C136.17 49.9711 136.018 48.5796 136.039 47.2226C136.053 45.7965 136.413 44.3357 137.278 43.1865C137.853 42.4042 138.677 41.8088 139.59 41.4626ZM139.916 44.8411C139.625 45.3119 139.487 45.8588 139.445 46.4057C141.141 46.4126 142.837 46.3988 144.527 46.4126C144.534 45.6303 144.25 44.8203 143.661 44.2873C143.121 43.7957 142.353 43.6019 141.64 43.6919C140.927 43.7888 140.29 44.2388 139.916 44.8411Z" fill="#3C3C3C"/>
<path d="M155.036 41.0889C155.548 41.0197 156.06 41.0197 156.58 41.0197V44.4327C155.873 44.322 155.133 44.315 154.44 44.5158C153.928 44.6612 153.45 44.9658 153.153 45.4089C152.772 45.9558 152.654 46.6412 152.647 47.292V53.8758H149.338C149.331 49.7081 149.338 45.5473 149.331 41.3797C150.363 41.3727 151.401 41.3727 152.433 41.3797C152.433 41.8573 152.426 42.342 152.433 42.8197C152.675 42.522 152.883 42.1897 153.187 41.9404C153.706 41.4904 154.35 41.1858 155.036 41.0889ZM159.709 41.5389C160.906 41.0612 162.222 41.0127 163.496 41.0681C164.631 41.1373 165.843 41.3727 166.729 42.1412C167.608 42.8889 168.044 44.0381 168.1 45.1735H164.922C164.846 44.682 164.645 44.1627 164.216 43.8789C163.71 43.5535 163.08 43.5189 162.499 43.5258C162.014 43.5466 161.502 43.5812 161.066 43.8166C160.616 44.052 160.505 44.7097 160.81 45.0973C161.017 45.3673 161.35 45.4989 161.654 45.6373C162.443 45.9558 163.281 46.1358 164.098 46.385C165.04 46.6689 166.023 46.8627 166.902 47.3335C167.373 47.5827 167.809 47.9289 168.079 48.4066C168.383 48.9535 168.446 49.5973 168.466 50.2204C168.487 50.885 168.335 51.5566 167.982 52.1173C167.483 52.9204 166.673 53.5089 165.787 53.8135C164.693 54.1943 163.523 54.2566 162.374 54.215C161.197 54.1597 160 53.9035 158.982 53.2873C158.22 52.8373 157.59 52.145 157.265 51.3143C157.085 50.8573 157.002 50.3658 156.981 49.8743H160.387C160.394 50.2966 160.526 50.7327 160.83 51.0373C161.322 51.5358 162.035 51.7227 162.713 51.7435C163.35 51.7643 164.001 51.695 164.583 51.425C164.866 51.2935 165.123 51.0512 165.171 50.7327C165.22 50.4004 165.15 50.0335 164.929 49.7704C164.77 49.5835 164.541 49.4797 164.32 49.3827C163.676 49.1127 162.976 49.0089 162.305 48.8289C161.322 48.5727 160.332 48.2889 159.425 47.8181C158.836 47.5135 158.276 47.112 157.909 46.5512C157.673 46.205 157.563 45.7966 157.5 45.395C157.383 44.6473 157.417 43.8512 157.77 43.1727C158.151 42.3766 158.913 41.8504 159.709 41.5389ZM104.691 41.3797C105.785 41.3866 106.886 41.3866 107.98 41.3797C108.007 45.5473 107.986 49.715 107.986 53.8827H104.684C104.684 49.715 104.677 45.5473 104.691 41.3797ZM9.40875 53.405C10.2187 53.135 11.1741 53.6197 11.4303 54.4297C11.728 55.2189 11.2918 56.1812 10.5026 56.4789C9.94182 56.7073 9.25644 56.5966 8.80644 56.1812C8.4049 55.8281 8.19721 55.2673 8.27336 54.7412C8.34951 54.132 8.81336 53.585 9.40875 53.405Z" fill="#3C3C3C"/>
<path fill-rule="evenodd" clip-rule="evenodd" d="M28.6829 31.0365C29.6383 30.2057 31.0783 29.998 32.2344 30.5103C33.1344 30.898 33.8544 31.6873 34.1383 32.6288C34.4429 33.5911 34.2975 34.678 33.7367 35.5157C33.1344 36.4434 32.0613 37.0527 30.9536 37.0665C30.0467 37.0942 29.1536 36.7203 28.4959 36.1042C27.8521 35.4742 27.4783 34.588 27.4506 33.688C27.506 33.2657 27.5198 32.8296 27.6998 32.435C27.8036 32.075 28.0598 31.7842 28.2329 31.4519C28.4059 31.3411 28.5236 31.1542 28.6829 31.0365ZM30.4483 31.6111C29.7975 31.7496 29.2298 32.2203 28.9736 32.8365C28.669 33.5357 28.7936 34.3942 29.2921 34.9757C29.8598 35.6888 30.919 35.938 31.7498 35.5434C32.6775 35.1419 33.2036 34.0134 32.8852 33.0442C32.5944 32.0334 31.4729 31.3619 30.4483 31.6111ZM10.6898 41.428C11.6729 40.9988 12.8152 40.9642 13.8259 41.338C14.8644 41.705 15.7506 42.4942 16.2144 43.498C16.5952 44.2596 16.7059 45.1388 16.6021 45.9765C16.4083 47.195 15.6813 48.3442 14.6152 48.9811C14.4006 49.1057 14.1859 49.2719 13.9229 49.2719L13.8883 49.3342C13.2998 49.5765 12.649 49.6457 12.0121 49.6042C11.438 49.5557 10.8798 49.3907 10.3715 49.1193C9.86329 48.8479 9.41566 48.4758 9.05595 48.0257C8.35254 47.1535 8.02167 46.039 8.13518 44.9242C8.2321 43.9203 8.70287 42.958 9.43672 42.2588C9.80364 41.9057 10.2398 41.6357 10.6898 41.428ZM12.0813 42.425C10.8213 42.5357 9.72056 43.5465 9.49903 44.7857C9.3121 45.7273 9.62364 46.7519 10.309 47.4165C10.8836 47.998 11.7213 48.3165 12.5383 48.268C13.2573 48.2275 13.9357 47.9216 14.4421 47.4096C15.0721 46.7865 15.3975 45.8588 15.2798 44.9727C15.1898 44.225 14.7952 43.5188 14.2067 43.048C13.6077 42.5691 12.8441 42.3453 12.0813 42.425Z" fill="#3C3C3C"/>
<path d="M43.9821 48.7181C44.3628 48.5935 44.7921 48.6281 45.1452 48.815C45.6159 49.0504 45.9552 49.5419 45.9898 50.0681C46.0382 50.5873 45.8029 51.1204 45.3805 51.4319C44.7782 51.9096 43.8228 51.8266 43.3105 51.2519C43.1332 51.0599 43.0072 50.8262 42.9442 50.5725C42.8812 50.3187 42.8833 50.0532 42.9503 49.8005C43.0172 49.5479 43.1469 49.3162 43.3273 49.1269C43.5077 48.9377 43.7329 48.7971 43.9821 48.7181Z" fill="#3C3C3C"/>
<path fill-rule="evenodd" clip-rule="evenodd" d="M30.1713 55.8969C30.3997 54.9969 31.2028 54.2423 32.1443 54.1731C32.712 54.0969 33.2936 54.27 33.7574 54.5954C34.2005 54.9415 34.5328 55.4469 34.6436 56.0008C34.8443 56.9769 34.3251 58.0431 33.4251 58.4792C32.5113 58.9639 31.2859 58.7146 30.6351 57.9046C30.1713 57.3646 29.9982 56.5962 30.1713 55.8969ZM31.9713 55.2462C31.4866 55.4123 31.1336 55.8969 31.1266 56.4092C31.1059 56.8939 31.4036 57.3646 31.8328 57.5792C32.2413 57.7939 32.7674 57.7454 33.1413 57.4685C33.5913 57.15 33.7851 56.5339 33.5913 56.0146C33.3766 55.3777 32.6013 55.0039 31.9713 55.2462Z" fill="#3C3C3C"/>
<path d="M52.8312 53.882C52.8312 48.2674 52.8243 42.6528 52.8312 37.0312C56.8327 37.0382 60.8343 37.0312 64.8427 37.0312V39.9597H56.3689V43.7882H63.7766V46.7651H56.3689V53.8751C55.185 53.882 54.0081 53.882 52.8312 53.882Z" fill="#3C3C3C"/>
<path fill-rule="evenodd" clip-rule="evenodd" d="M20.4791 39.4547C21.3099 38.9909 22.3345 38.8593 23.2345 39.1916C24.3838 39.5932 25.2837 40.4586 26.1422 41.2893H26.1907C27.0768 40.4516 28.0253 39.6416 29.1745 39.1986C30.0814 38.8386 31.1407 38.9355 32.0061 39.3786C32.8922 39.8355 33.4599 40.7493 33.6953 41.6978C33.9168 42.577 33.9445 43.5186 33.7091 44.4047C33.363 45.7062 32.5737 46.8486 31.6945 47.8524C30.7668 48.8909 29.7076 49.8047 28.5861 50.6216C27.8038 51.1893 27.0007 51.7432 26.1491 52.207C24.4945 51.3209 22.9161 50.2755 21.5245 49.0086C20.3476 47.9286 19.2745 46.6686 18.693 45.1593C18.3261 44.1901 18.1876 43.1032 18.4576 42.0924C18.7553 40.9916 19.4822 40.0016 20.4791 39.4547ZM28.3091 40.7424C29.2368 40.4932 30.303 40.7009 31.023 41.3516C31.7914 42.0509 32.0961 43.117 32.1238 44.1278C32.1584 44.9862 31.8745 45.8239 31.4868 46.5786C31.6322 46.4539 31.7291 46.2878 31.8399 46.1355C32.4491 45.2839 32.9199 44.2732 32.8922 43.2001C32.8714 42.3416 32.6361 41.4347 32.0199 40.8047C31.5561 40.3201 30.8845 40.0847 30.2268 40.0639C29.5276 40.0432 28.8699 40.3616 28.3091 40.7424ZM66.5522 42.4386C67.4661 41.5039 68.8161 41.1647 70.0899 41.0816C71.4607 41.0055 72.8937 41.0539 74.1468 41.6701C74.8945 42.0301 75.5037 42.667 75.8222 43.4286C76.2514 44.4393 76.2861 45.5609 76.2653 46.6409C76.2722 49.0501 76.2584 51.4662 76.2722 53.8755C75.2545 53.8962 74.2299 53.8755 73.2122 53.8824C73.1014 53.5224 73.0461 53.1555 73.0114 52.7816C72.2153 53.6401 71.0591 54.0832 69.9099 54.1801C68.913 54.2493 67.8745 54.2078 66.9399 53.8201C66.1437 53.4947 65.5276 52.7955 65.2507 51.9855C65.0845 51.5009 65.043 50.9747 65.0707 50.4693C65.0914 49.9224 65.1745 49.3686 65.3891 48.8562C65.659 48.2416 66.1108 47.7245 66.6838 47.3747C67.6737 46.7655 68.8507 46.627 69.9653 46.4332C70.7476 46.2947 71.5645 46.2532 72.2984 45.9347C73.0184 45.6439 73.1222 44.5362 72.5268 44.0724C72.0491 43.6916 71.4122 43.6016 70.8237 43.5947C70.3114 43.6016 69.7645 43.657 69.3353 43.9616C68.8784 44.3147 68.6361 44.8824 68.553 45.4432C67.5284 45.457 66.4968 45.4432 65.4653 45.4501C65.5068 44.3701 65.7699 43.2278 66.5522 42.4386ZM71.6753 48.3232C70.8237 48.5239 69.9238 48.6209 69.1414 49.0432C68.7399 49.2578 68.4491 49.6662 68.3937 50.1162C68.3176 50.6009 68.3868 51.1686 68.7884 51.5009C69.1899 51.8262 69.7368 51.8609 70.2353 51.8262C71.2599 51.757 72.243 51.1478 72.693 50.2201C73.0945 49.4655 72.9214 48.5862 72.9837 47.7693C72.6237 48.1016 72.1391 48.2124 71.6753 48.3232Z" fill="#3C3C3C"/>
<path d="M82.2323 41.8706C82.9731 41.2752 83.9423 41.0536 84.8769 41.0259C85.9223 40.9775 87.03 41.199 87.8608 41.8636C88.7885 42.6113 89.2661 43.809 89.2869 44.979V53.8752H85.9777V46.6406C85.9777 45.9621 85.9915 45.249 85.6869 44.6329C85.4654 44.1759 84.9531 43.9613 84.4823 43.899C83.7761 43.8021 83.0077 43.8367 82.3777 44.2106C81.9138 44.4806 81.6092 44.9582 81.4569 45.4567C81.2492 46.1421 81.2977 46.8621 81.2908 47.5682V53.889C80.1831 53.8821 79.0754 53.9098 77.9746 53.8752C77.9954 49.7144 77.9815 45.5536 77.9815 41.3929C79.0338 41.3859 80.0931 41.3859 81.1454 41.3929C81.1385 41.9813 81.1454 42.5629 81.1385 43.1513C81.45 42.6806 81.7754 42.2098 82.2323 41.8706Z" fill="#3C3C3C"/>
<path d="M167.898 37.0726C168.618 37.0726 169.345 37.0588 170.065 37.0795V37.5295C169.795 37.5572 169.525 37.5295 169.255 37.5503C169.262 38.2772 169.269 39.0041 169.255 39.7311C169.068 39.738 168.881 39.738 168.701 39.7311C168.687 39.0041 168.701 38.2772 168.694 37.5434C168.431 37.5364 168.161 37.5434 167.898 37.5364C167.891 37.3772 167.891 37.2249 167.898 37.0726ZM170.418 37.0726C170.695 37.0657 170.972 37.0588 171.249 37.0864C171.401 37.7026 171.546 38.3257 171.705 38.9418C171.92 38.3326 172.01 37.6888 172.197 37.0726H172.993V39.7172C172.82 39.7449 172.64 39.738 172.467 39.7311C172.446 39.1703 172.495 38.6026 172.439 38.0418C172.287 38.5957 172.135 39.1564 171.989 39.7172C171.795 39.7449 171.602 39.7449 171.415 39.7172C171.262 39.1772 171.124 38.6303 170.972 38.0903C170.895 38.6303 170.958 39.1772 170.937 39.7241C170.764 39.7311 170.584 39.7311 170.411 39.7241C170.411 38.838 170.411 37.9588 170.418 37.0726Z" fill="#3C3C3C"/>
</g>
<defs>
<clipPath id="clip0_8_3804">
<rect width="180" height="90" fill="white"/>
</clipPath>
</defs>
</svg>
