<svg width="181" height="91" viewBox="0 0 181 91" fill="none" xmlns="http://www.w3.org/2000/svg">
<g clip-path="url(#clip0_18_4525)">
<path d="M32.7294 25.1885H33.3179C33.5879 25.2854 33.8717 25.3823 34.0932 25.5762C34.5848 25.9846 34.7994 26.6839 34.6332 27.2931C34.4602 27.9785 33.8094 28.5116 33.1032 28.5323C32.5355 28.5669 31.9679 28.29 31.6425 27.8262C31.2271 27.2585 31.2409 26.4208 31.6632 25.86C31.9194 25.5069 32.3209 25.2992 32.7294 25.1885ZM6.43555 31.2877C6.54632 30.5331 7.24555 29.9031 8.02093 29.9446C8.78939 29.9239 9.48862 30.5746 9.56478 31.3362C9.64785 31.9939 9.26016 32.6723 8.65785 32.9423C8.1317 33.1916 7.47401 33.1016 7.02401 32.7416C6.71247 32.4992 6.52555 32.1323 6.44247 31.7516V31.2877H6.43555Z" fill="#BDBDBD"/>
<path fill-rule="evenodd" clip-rule="evenodd" d="M39.7633 40.6618C39.8879 40.6618 40.0264 40.6757 40.1441 40.6064L40.1026 40.6688C41.4179 40.7726 42.6364 41.5964 43.2456 42.7664C43.7302 43.6734 43.8202 44.7741 43.5087 45.7503C43.3522 46.2494 43.0969 46.712 42.7579 47.1104C42.4189 47.5089 42.0033 47.835 41.5356 48.0695C40.9195 48.388 40.2272 48.4988 39.5418 48.4918C38.711 48.4157 37.901 48.1111 37.2641 47.5641C36.4126 46.8511 35.8726 45.7641 35.8726 44.6495C35.8449 43.6664 36.2118 42.6764 36.8695 41.9426C37.2388 41.5428 37.6861 41.2229 38.1838 41.0026C38.6815 40.7823 39.2191 40.6663 39.7633 40.6618ZM39.1956 42.0603C38.0187 42.3026 37.1256 43.4588 37.1949 44.6564C37.2018 45.9511 38.3372 47.1211 39.6318 47.1488C40.4764 47.2041 41.321 46.8026 41.8333 46.1311C42.2556 45.5703 42.4426 44.8295 42.3179 44.1372C42.2484 43.7339 42.0841 43.3529 41.8386 43.0256C41.5931 42.6982 41.2733 42.4338 40.9056 42.2541C40.3864 41.9911 39.7633 41.9218 39.1956 42.0603Z" fill="#BDBDBD"/>
<path d="M22.0471 26.2067C23.0925 25.9644 24.214 26.0544 25.204 26.4767C26.2702 26.9267 27.1702 27.7644 27.7102 28.789C28.1809 29.6752 28.3748 30.7067 28.264 31.7106C28.0909 32.0429 27.8417 32.3267 27.7309 32.6937C27.5509 33.0883 27.5371 33.5244 27.4817 33.9467C26.9754 34.699 26.2872 35.311 25.4809 35.726C24.2625 36.3283 22.8017 36.4321 21.5209 35.9683C21.1679 35.8229 20.8148 35.6775 20.4894 35.4837C20.2125 35.3313 19.9979 35.096 19.7486 34.909C18.4609 33.7321 17.8586 31.8767 18.2117 30.1737C17.5817 30.2706 16.9102 29.959 16.6194 29.3844C16.3425 28.8721 16.3979 28.2006 16.7648 27.7437C17.104 27.3006 17.6994 27.079 18.2394 27.1898C18.6756 27.266 19.0494 27.5498 19.2709 27.9306C19.9979 27.079 20.974 26.456 22.0471 26.2067ZM22.684 27.446C21.4586 27.6121 20.3579 28.429 19.8317 29.5437C19.4163 30.4021 19.3471 31.4198 19.6448 32.3198C19.9202 33.1641 20.4839 33.8846 21.2371 34.3552C22.1232 34.909 23.2448 35.0752 24.2486 34.7706C25.1264 34.5143 25.8815 33.9486 26.374 33.1783C26.8448 32.4444 27.0525 31.5306 26.9279 30.6652C26.7894 29.5644 26.1248 28.5537 25.1832 27.9721C24.4379 27.5086 23.553 27.3223 22.684 27.446ZM18.6132 51.9329C18.6271 51.919 18.6548 51.8983 18.6686 51.8844C19.1117 52.0021 19.5825 51.9883 20.0186 52.1406C20.5517 52.3413 21.0709 52.5837 21.4932 52.9644C21.8809 53.3244 22.2825 53.6913 22.5317 54.169C23.3832 55.519 23.3625 57.326 22.594 58.7037C22.1091 59.5539 21.3641 60.2261 20.4686 60.6213C19.3679 61.106 18.0732 61.1337 16.9586 60.6767C16.0231 60.2926 15.2398 59.6114 14.7294 58.7383C13.7809 57.1737 13.9609 55.0413 15.1102 53.629C15.4079 53.269 15.754 52.9575 16.1348 52.6944C16.8617 52.2029 17.7409 51.9467 18.6132 51.9329ZM18.0179 53.546C17.3394 53.6983 16.7094 54.086 16.2871 54.6398C15.8579 55.1937 15.6294 55.8998 15.664 56.599C15.6917 57.4852 16.1556 58.3298 16.8617 58.856C17.4917 59.3406 18.3363 59.5483 19.1186 59.4167C19.8594 59.299 20.5517 58.8975 21.0017 58.3021C21.5486 57.6098 21.7632 56.6752 21.5625 55.8167C21.3548 54.8475 20.6209 54.0098 19.6932 53.6637C19.1602 53.4629 18.5717 53.4283 18.0179 53.546Z" fill="#BDBDBD"/>
<path fill-rule="evenodd" clip-rule="evenodd" d="M36.2947 29.9522C37.0909 29.606 38.0394 29.6406 38.8078 30.0422C39.5209 30.4091 40.0747 31.0806 40.2894 31.856C40.4763 32.5068 40.4209 33.2199 40.1578 33.8429C40.8086 33.6906 41.5078 33.7599 42.1032 34.0714C42.8232 34.4383 43.3632 35.1514 43.5224 35.9406C43.7094 36.806 43.4394 37.7614 42.8232 38.3983C42.3247 38.9245 41.6186 39.236 40.8986 39.2568C40.7463 39.7483 40.4763 40.1983 40.1509 40.5929C40.0401 40.6622 39.9017 40.6483 39.7701 40.6483C38.6832 40.6483 37.6032 41.1329 36.8694 41.936C36.2117 42.6699 35.8378 43.6529 35.8724 44.6429C35.8724 45.7576 36.4124 46.8445 37.264 47.5576C37.9009 48.1045 38.7109 48.4091 39.5417 48.4853C40.2824 49.1983 40.8224 50.1399 40.9747 51.1714C41.1409 52.2099 40.954 53.3037 40.4278 54.2106C39.8717 55.1734 38.9979 55.9126 37.9563 56.3014C36.9109 56.6891 35.7201 56.6683 34.6817 56.2599C34.5709 55.6991 34.2386 55.2006 33.7955 54.8545C33.3317 54.5291 32.7501 54.356 32.1824 54.4322C31.2409 54.4945 30.4378 55.256 30.2094 56.156C29.9047 56.2599 29.6001 56.3568 29.2886 56.4399C29.8909 57.5822 29.8217 59.0429 29.0878 60.1091C28.7825 60.5627 28.3772 60.9402 27.9031 61.2126C27.429 61.485 26.8988 61.6451 26.3532 61.6806H25.7578C25.4117 61.6183 25.0655 61.5491 24.7401 61.4037C23.6324 60.9399 22.7809 59.8806 22.6009 58.6899C23.3694 57.3122 23.3901 55.5052 22.5386 54.1552C22.2894 53.6776 21.8878 53.3106 21.5001 52.9506C21.0778 52.5699 20.5517 52.3206 20.0255 52.1268C19.5894 51.9745 19.1186 51.9883 18.6755 51.8706C18.9455 51.3583 18.987 50.7491 18.7794 50.2091C19.1255 49.8629 19.4717 49.5099 19.8247 49.1706C21.4101 50.8806 23.307 52.2722 25.3078 53.4491C25.3217 54.3145 25.3009 55.1799 25.3009 56.0383C24.8163 56.2391 24.387 56.5991 24.1447 57.0699C23.8194 57.6653 23.7917 58.406 24.0617 59.0291C24.2624 59.4791 24.6086 59.8668 25.0378 60.1022C25.6955 60.4691 26.5401 60.4829 27.2047 60.1229C28.1047 59.6453 28.5478 58.5029 28.2778 57.5337C28.084 56.8622 27.5578 56.3291 26.9624 55.9829C26.9624 55.1383 26.9347 54.2937 26.9763 53.456C27.9109 52.9368 28.804 52.3345 29.6624 51.7045C30.6109 50.9914 31.5178 50.2229 32.3278 49.3576C32.7017 49.676 33.0617 50.0083 33.4286 50.3337C33.0547 51.0537 32.937 51.9053 33.1309 52.6945C33.3386 53.5737 33.9201 54.356 34.7024 54.806C35.6232 55.3529 36.814 55.4014 37.7832 54.9445C38.1909 54.754 38.5558 54.4828 38.8557 54.1472C39.1555 53.8116 39.3842 53.4187 39.5278 52.9922C39.777 52.2722 39.7632 51.4622 39.4932 50.7422C39.3208 50.2906 39.0527 49.8817 38.7073 49.5435C38.3619 49.2053 37.9475 48.9459 37.4924 48.7829C36.5301 48.4299 35.4155 48.5753 34.557 49.1291C34.1763 48.7899 33.7955 48.4506 33.4147 48.1045C34.1901 47.0522 34.827 45.8752 35.1109 44.5945C35.367 43.466 35.3463 42.2614 34.8963 41.1814L36.4124 40.0806C36.9663 40.4268 37.6794 40.5168 38.2955 40.2883C39.0432 40.0253 39.6109 39.3191 39.694 38.5229C39.7009 38.1353 40.1024 37.8099 40.4832 37.9068C40.9817 38.0245 41.5424 37.8653 41.8817 37.4706C42.2832 37.0345 42.3663 36.3353 42.0617 35.816C41.7501 35.2483 41.044 34.9645 40.4278 35.1376C39.8601 34.5422 39.2924 33.9537 38.7317 33.3583C38.9394 32.936 38.967 32.4237 38.7455 32.0083C38.4755 31.4476 37.8109 31.1153 37.2017 31.2329C36.5301 31.3299 35.9901 31.9668 35.997 32.6453C35.9763 33.3099 36.4747 33.9468 37.1255 34.0853C37.3955 34.1545 37.6655 34.1129 37.9286 34.0506C38.4824 34.6322 39.0432 35.2137 39.5901 35.7953C39.4932 36.0376 39.3686 36.3145 39.0986 36.4045C38.8701 36.5014 38.6278 36.4183 38.4201 36.3076C37.6724 35.9683 36.7378 36.1206 36.1355 36.6745C35.5678 37.1729 35.3186 37.976 35.4709 38.7168L34.017 39.776C33.3594 39.0422 32.5009 38.4814 31.5455 38.2253C30.3132 37.886 28.9424 38.0245 27.8209 38.6545C27.177 38.9868 26.6509 39.4991 26.1524 40.0114C25.8409 39.7206 25.564 39.3953 25.2247 39.1391C24.3594 38.4468 23.2586 38.0383 22.144 38.0453C21.1055 38.0314 20.0601 38.3499 19.2086 38.9522C19.0701 39.056 18.9317 39.1599 18.7863 39.2637C18.454 38.8899 18.087 38.5437 17.7547 38.1629C18.1217 37.5953 18.2532 36.8822 18.1286 36.2245C17.9901 35.3799 17.4224 34.6253 16.654 34.2445C16.0594 33.9423 15.3747 33.8684 14.7294 34.0368C13.8778 34.2514 13.1578 34.9022 12.8394 35.7191C12.6109 36.2799 12.597 36.9099 12.7563 37.4845C12.2717 37.7406 11.787 37.9899 11.3024 38.2391C10.9217 37.8791 10.3886 37.6645 9.86243 37.7337C9.20474 37.7891 8.60243 38.2668 8.38781 38.8899C8.13858 39.5753 8.36012 40.3991 8.92782 40.856C9.44012 41.2853 10.2155 41.396 10.797 41.0499C11.427 40.676 11.9394 39.9491 11.7801 39.1876C12.2578 38.9176 12.7563 38.6822 13.2409 38.426C13.677 38.966 14.307 39.3537 14.9994 39.4506C15.5047 39.5337 16.024 39.4506 16.5017 39.2637C16.8686 39.6514 17.2355 40.0391 17.6024 40.4199C17.644 40.4753 17.7478 40.5376 17.6855 40.6137C17.2143 41.4431 16.9864 42.3884 17.0278 43.3414C17.0832 44.9545 17.7547 46.4914 18.6824 47.7929C18.7101 47.8483 18.807 47.9245 18.724 47.9799C18.3501 48.3606 17.9694 48.7345 17.5886 49.1083C16.647 48.7622 15.5117 49.2952 15.1655 50.2299C14.7709 51.1437 15.2347 52.2722 16.1278 52.6945C15.747 52.9645 15.4009 53.276 15.1032 53.6291C14.1755 52.9922 13.6147 51.8568 13.7047 50.7283C13.7186 50.3406 13.8501 49.9806 13.954 49.6137C13.9401 49.6068 13.9194 49.5999 13.9124 49.5929L13.947 49.5306C14.2101 49.5376 14.4247 49.3645 14.6394 49.2399C15.7124 48.6029 16.4324 47.4606 16.6263 46.2353C16.737 45.3976 16.6194 44.5183 16.2386 43.7568C15.7747 42.7529 14.8886 41.9637 13.8501 41.5968C12.8318 41.2242 11.7093 41.2564 10.714 41.6868C10.257 41.9014 9.82781 42.1645 9.46089 42.5176C9.00796 42.4291 8.58039 42.2409 8.20919 41.9667C7.83799 41.6925 7.53245 41.3391 7.31474 40.9322C6.89243 40.1499 6.83012 39.1737 7.16935 38.3499C7.5432 37.4083 8.40166 36.6676 9.39858 36.4599C10.0424 36.3145 10.7209 36.4045 11.3163 36.6676C11.3232 35.7468 11.6555 34.8329 12.237 34.1199C12.7978 33.4276 13.594 32.9291 14.4663 32.7283C15.4701 32.4929 16.557 32.6522 17.4432 33.1714C18.2532 33.6353 18.8832 34.3899 19.2224 35.2553L19.7417 34.9022C19.9909 35.0891 20.2055 35.3245 20.4824 35.4768C20.8078 35.6776 21.1609 35.816 21.514 35.9614C22.7947 36.4253 24.2555 36.3214 25.474 35.7191C26.2802 35.3041 26.9684 34.6921 27.4747 33.9399C27.5024 34.8399 27.8763 35.726 28.5201 36.356C29.1778 36.9722 30.0709 37.346 30.9778 37.3183C32.0924 37.3114 33.1586 36.7022 33.7609 35.7676C34.0447 35.996 34.3009 36.2522 34.5778 36.4945C34.8894 35.9406 35.374 35.4976 35.9278 35.1929C35.5332 34.9437 35.1801 34.6183 34.9378 34.2168C34.4532 33.4622 34.3563 32.4791 34.6678 31.6345C34.9586 30.9006 35.554 30.2637 36.2947 29.9522ZM25.8547 36.2314C25.3286 36.3145 24.8924 36.7922 24.8717 37.3322C24.844 37.7129 25.0101 38.1006 25.3078 38.336C25.6817 38.6476 26.2563 38.696 26.6717 38.4329C27.0663 38.1976 27.3017 37.7268 27.2463 37.2699C27.1909 36.6053 26.5055 36.0929 25.8547 36.2314ZM31.0817 51.5037C30.6455 51.6145 30.2994 52.0022 30.2163 52.4383C30.1332 52.8814 30.3132 53.3522 30.6801 53.6152C31.1301 53.9683 31.8363 53.9129 32.2378 53.5045C32.577 53.1722 32.6809 52.6253 32.494 52.1891C32.2794 51.656 31.6424 51.3376 31.0817 51.5037ZM131.397 37.076C132.484 37.0691 133.564 37.076 134.651 37.076C134.644 42.7668 134.665 48.4645 134.644 54.1552C133.592 54.1414 132.532 54.1553 131.48 54.1483C131.459 53.6499 131.466 53.1445 131.452 52.646C130.947 53.4837 130.109 54.1345 129.147 54.3491C127.735 54.6745 126.17 54.4253 124.993 53.5599C124.121 52.9299 123.505 52.0091 123.117 51.0122C122.612 49.7383 122.501 48.3399 122.591 46.9829C122.688 45.6468 123.048 44.2968 123.844 43.2029C124.502 42.2891 125.512 41.6245 126.62 41.4168C127.728 41.2091 128.939 41.306 129.922 41.8876C130.511 42.2268 130.989 42.7183 131.397 43.2514V37.076ZM128.247 44.1791C127.762 44.2483 127.292 44.4353 126.932 44.7745C126.475 45.1899 126.219 45.7783 126.08 46.3668C125.921 47.0868 125.886 47.8276 125.942 48.5614C126.018 49.5306 126.378 50.5206 127.112 51.1783C127.908 51.9122 129.209 51.9814 130.096 51.3722C130.663 50.9776 131.072 50.3822 131.293 49.7245C131.494 49.1153 131.542 48.4645 131.515 47.8276C131.487 47.0937 131.397 46.346 131.106 45.6676C130.899 45.1691 130.552 44.7191 130.075 44.456C129.514 44.1445 128.856 44.096 128.247 44.1791Z" fill="#BDBDBD"/>
<path d="M105.935 37.3042C106.724 37.0827 107.617 37.5257 107.929 38.2804C108.226 38.9519 108.026 39.7965 107.451 40.2604C106.911 40.7242 106.073 40.7796 105.471 40.3988C104.945 40.0804 104.619 39.4573 104.668 38.8481C104.696 38.135 105.236 37.4773 105.935 37.3042ZM91.4863 37.3042H103.498C103.505 38.2804 103.498 39.2565 103.498 40.2327H95.0171V44.0611H102.432V47.0381H95.0171C95.0171 49.4057 95.024 51.7804 95.0102 54.1481C93.8332 54.1481 92.6632 54.1411 91.4932 54.1481C91.4794 48.5334 91.4933 42.9188 91.4863 37.3042ZM114.132 42.0673C115.004 41.4165 116.132 41.2642 117.192 41.2988C118.237 41.3334 119.317 41.6934 120.037 42.4827C120.605 43.0988 120.951 43.9019 121.055 44.7257C121.117 45.1619 121.096 45.6119 121.096 46.055V54.155H117.787C117.78 51.5173 117.794 48.8796 117.78 46.2488C117.746 45.7019 117.69 45.1065 117.33 44.6634C116.949 44.2411 116.34 44.1442 115.8 44.1234C115.087 44.0957 114.312 44.2481 113.799 44.7742C113.252 45.335 113.107 46.1519 113.1 46.9065C113.093 49.3227 113.1 51.7388 113.1 54.155H109.798C109.798 49.9873 109.784 45.8196 109.805 41.6519C110.857 41.6588 111.902 41.6519 112.955 41.6519C112.962 42.2404 112.948 42.8219 112.962 43.4104C113.273 42.905 113.64 42.4134 114.132 42.0673Z" fill="#BDBDBD"/>
<path fill-rule="evenodd" clip-rule="evenodd" d="M139.622 41.7283C140.459 41.4098 141.373 41.299 142.266 41.3198C143.457 41.3267 144.676 41.6175 145.638 42.3444C146.496 42.9813 147.085 43.916 147.431 44.9129C147.86 46.1521 147.978 47.4675 147.985 48.769H139.372C139.414 49.4406 139.566 50.119 139.947 50.6867C140.3 51.2267 140.847 51.6421 141.484 51.7806C142.156 51.926 142.882 51.8706 143.492 51.5452C143.928 51.3306 144.267 50.929 144.399 50.4583H147.805C147.486 51.5521 146.87 52.5837 145.963 53.2898C144.966 54.0929 143.679 54.4737 142.405 54.4737C141.166 54.4875 139.878 54.3006 138.784 53.6913C137.891 53.1998 137.192 52.4037 136.769 51.476C136.202 50.2367 136.049 48.8452 136.07 47.4883C136.084 46.0621 136.444 44.6013 137.309 43.4521C137.884 42.6698 138.708 42.0744 139.622 41.7283ZM139.947 45.1067C139.656 45.5775 139.518 46.1244 139.476 46.6713C141.172 46.6783 142.869 46.6644 144.558 46.6783C144.565 45.896 144.281 45.086 143.692 44.5529C143.152 44.0613 142.384 43.8675 141.671 43.9575C140.958 44.0544 140.321 44.5044 139.947 45.1067Z" fill="#BDBDBD"/>
<path d="M155.067 41.3545C155.579 41.2853 156.092 41.2853 156.611 41.2853V44.6984C155.905 44.5876 155.164 44.5807 154.472 44.7814C153.959 44.9268 153.482 45.2314 153.184 45.6745C152.803 46.2214 152.686 46.9068 152.679 47.5576V54.1414H149.369C149.363 49.9737 149.369 45.813 149.363 41.6453C150.394 41.6384 151.433 41.6384 152.464 41.6453C152.464 42.123 152.457 42.6076 152.464 43.0853C152.706 42.7876 152.914 42.4553 153.219 42.206C153.738 41.756 154.382 41.4514 155.067 41.3545ZM159.74 41.8045C160.938 41.3268 162.253 41.2784 163.527 41.3337C164.663 41.403 165.874 41.6384 166.76 42.4068C167.639 43.1545 168.076 44.3037 168.131 45.4391H164.953C164.877 44.9476 164.676 44.4284 164.247 44.1445C163.742 43.8191 163.112 43.7845 162.53 43.7914C162.046 43.8122 161.533 43.8468 161.097 44.0822C160.647 44.3176 160.536 44.9753 160.841 45.363C161.049 45.633 161.381 45.7645 161.686 45.903C162.475 46.2214 163.313 46.4014 164.129 46.6507C165.071 46.9345 166.054 47.1284 166.933 47.5991C167.404 47.8484 167.84 48.1945 168.11 48.6722C168.415 49.2191 168.477 49.863 168.498 50.486C168.519 51.1507 168.366 51.8222 168.013 52.383C167.515 53.186 166.705 53.7745 165.819 54.0791C164.725 54.4599 163.555 54.5222 162.406 54.4807C161.229 54.4253 160.031 54.1691 159.013 53.553C158.252 53.103 157.622 52.4107 157.296 51.5799C157.116 51.123 157.033 50.6314 157.013 50.1399H160.419C160.426 50.5622 160.557 50.9984 160.862 51.303C161.353 51.8014 162.066 51.9884 162.745 52.0091C163.382 52.0299 164.033 51.9607 164.614 51.6907C164.898 51.5591 165.154 51.3168 165.203 50.9984C165.251 50.666 165.182 50.2991 164.96 50.036C164.801 49.8491 164.573 49.7453 164.351 49.6484C163.707 49.3784 163.008 49.2745 162.336 49.0945C161.353 48.8384 160.363 48.5545 159.456 48.0837C158.868 47.7791 158.307 47.3776 157.94 46.8168C157.705 46.4707 157.594 46.0622 157.532 45.6607C157.414 44.913 157.449 44.1168 157.802 43.4384C158.183 42.6422 158.944 42.116 159.74 41.8045ZM104.723 41.6453C105.816 41.6522 106.917 41.6522 108.011 41.6453C108.039 45.813 108.018 49.9807 108.018 54.1484H104.716C104.716 49.9807 104.709 45.813 104.723 41.6453ZM9.44024 53.6707C10.2502 53.4007 11.2056 53.8853 11.4618 54.6953C11.7595 55.4845 11.3233 56.4468 10.5341 56.7445C9.97332 56.973 9.28793 56.8622 8.83793 56.4468C8.43639 56.0937 8.2287 55.533 8.30485 55.0068C8.38101 54.3976 8.84486 53.8507 9.44024 53.6707Z" fill="#BDBDBD"/>
<path fill-rule="evenodd" clip-rule="evenodd" d="M28.7141 31.3021C29.6695 30.4714 31.1095 30.2637 32.2657 30.776C33.1657 31.1637 33.8857 31.9529 34.1695 32.8944C34.4741 33.8567 34.3287 34.9437 33.768 35.7814C33.1657 36.709 32.0926 37.3183 30.9849 37.3321C30.078 37.3598 29.1849 36.986 28.5272 36.3698C27.8834 35.7398 27.5095 34.8537 27.4818 33.9537C27.5372 33.5314 27.551 33.0952 27.731 32.7006C27.8349 32.3406 28.091 32.0498 28.2641 31.7175C28.4372 31.6067 28.5549 31.4198 28.7141 31.3021ZM30.4795 31.8767C29.8287 32.0152 29.261 32.486 29.0049 33.1021C28.7003 33.8014 28.8249 34.6598 29.3234 35.2414C29.891 35.9544 30.9503 36.2037 31.781 35.809C32.7087 35.4075 33.2349 34.279 32.9164 33.3098C32.6257 32.299 31.5041 31.6275 30.4795 31.8767ZM10.721 41.6937C11.7041 41.2644 12.8464 41.2298 13.8572 41.6037C14.8957 41.9706 15.7818 42.7598 16.2457 43.7637C16.6264 44.5252 16.7372 45.4044 16.6334 46.2421C16.4395 47.4606 15.7126 48.6098 14.6464 49.2467C14.4318 49.3714 14.2172 49.5375 13.9541 49.5375L13.9195 49.5998C13.331 49.8421 12.6803 49.9114 12.0434 49.8698C11.4692 49.8213 10.911 49.6563 10.4028 49.3849C9.89454 49.1135 9.44691 48.7414 9.0872 48.2914C8.38379 47.4191 8.05292 46.3046 8.16643 45.1898C8.26335 44.186 8.73412 43.2237 9.46797 42.5244C9.83489 42.1714 10.271 41.9014 10.721 41.6937ZM12.1126 42.6906C10.8526 42.8014 9.75181 43.8121 9.53028 45.0514C9.34335 45.9929 9.65489 47.0175 10.3403 47.6821C10.9149 48.2637 11.7526 48.5821 12.5695 48.5337C13.2885 48.4932 13.9669 48.1873 14.4734 47.6752C15.1034 47.0521 15.4287 46.1244 15.311 45.2383C15.221 44.4906 14.8264 43.7844 14.238 43.3137C13.6389 42.8347 12.8754 42.6109 12.1126 42.6906Z" fill="#BDBDBD"/>
<path d="M44.0133 48.9837C44.3941 48.8591 44.8233 48.8937 45.1764 49.0806C45.6472 49.316 45.9864 49.8076 46.021 50.3337C46.0695 50.8529 45.8341 51.386 45.4118 51.6976C44.8095 52.1753 43.8541 52.0922 43.3418 51.5176C43.1644 51.3255 43.0384 51.0918 42.9754 50.8381C42.9124 50.5844 42.9145 50.3189 42.9815 50.0662C43.0485 49.8135 43.1782 49.5818 43.3585 49.3926C43.5389 49.2033 43.7641 49.0627 44.0133 48.9837Z" fill="#BDBDBD"/>
<path fill-rule="evenodd" clip-rule="evenodd" d="M30.2025 56.1626C30.431 55.2626 31.2341 54.5079 32.1756 54.4387C32.7433 54.3626 33.3248 54.5356 33.7887 54.861C34.2317 55.2072 34.5641 55.7126 34.6748 56.2664C34.8756 57.2426 34.3564 58.3087 33.4564 58.7449C32.5425 59.2295 31.3171 58.9803 30.6664 58.1703C30.2025 57.6303 30.0294 56.8618 30.2025 56.1626ZM32.0025 55.5118C31.5179 55.6779 31.1648 56.1626 31.1579 56.6749C31.1371 57.1595 31.4348 57.6302 31.8641 57.8449C32.2725 58.0595 32.7987 58.011 33.1725 57.7341C33.6225 57.4156 33.8164 56.7995 33.6225 56.2803C33.4079 55.6433 32.6325 55.2695 32.0025 55.5118Z" fill="#BDBDBD"/>
<path d="M52.8625 54.1476C52.8625 48.533 52.8555 42.9184 52.8625 37.2969C56.864 37.3038 60.8655 37.2969 64.874 37.2969V40.2253H56.4001V44.0538H63.8078V47.0307H56.4001V54.1407C55.2163 54.1476 54.0394 54.1476 52.8625 54.1476Z" fill="#BDBDBD"/>
<path fill-rule="evenodd" clip-rule="evenodd" d="M20.5104 39.7203C21.3412 39.2565 22.3658 39.1249 23.2658 39.4573C24.415 39.8588 25.315 40.7242 26.1735 41.5549H26.2219C27.1081 40.7173 28.0565 39.9073 29.2058 39.4642C30.1127 39.1042 31.1719 39.2011 32.0373 39.6442C32.9235 40.1011 33.4912 41.0149 33.7265 41.9634C33.9481 42.8426 33.9758 43.7842 33.7404 44.6703C33.3942 45.9719 32.605 47.1142 31.7258 48.118C30.7981 49.1565 29.7388 50.0703 28.6173 50.8873C27.835 51.4549 27.0319 52.0088 26.1804 52.4726C24.5258 51.5865 22.9473 50.5411 21.5558 49.2742C20.3788 48.1942 19.3058 46.9342 18.7242 45.4249C18.3573 44.4557 18.2188 43.3688 18.4888 42.358C18.7865 41.2573 19.5135 40.2673 20.5104 39.7203ZM28.3404 41.008C29.2681 40.7588 30.3342 40.9665 31.0542 41.6173C31.8227 42.3165 32.1273 43.3826 32.155 44.3934C32.1896 45.2519 31.9058 46.0896 31.5181 46.8442C31.6635 46.7196 31.7604 46.5534 31.8712 46.4011C32.4804 45.5496 32.9512 44.5388 32.9235 43.4657C32.9027 42.6073 32.6673 41.7003 32.0512 41.0703C31.5873 40.5857 30.9158 40.3503 30.2581 40.3296C29.5588 40.3088 28.9012 40.6273 28.3404 41.008ZM66.5835 42.7042C67.4973 41.7696 68.8473 41.4303 70.1212 41.3473C71.4919 41.2711 72.925 41.3196 74.1781 41.9357C74.9258 42.2957 75.535 42.9326 75.8535 43.6942C76.2827 44.7049 76.3173 45.8265 76.2965 46.9065C76.3035 49.3157 76.2896 51.7319 76.3035 54.1411C75.2858 54.1619 74.2612 54.1411 73.2435 54.148C73.1327 53.788 73.0773 53.4211 73.0427 53.0473C72.2465 53.9057 71.0904 54.3488 69.9412 54.4457C68.9442 54.5149 67.9058 54.4734 66.9712 54.0857C66.175 53.7603 65.5588 53.0611 65.2819 52.2511C65.1158 51.7665 65.0742 51.2403 65.1019 50.7349C65.1227 50.188 65.2058 49.6342 65.4204 49.1219C65.6902 48.5072 66.1421 47.9901 66.715 47.6403C67.705 47.0311 68.8819 46.8926 69.9965 46.6988C70.7788 46.5603 71.5958 46.5188 72.3296 46.2003C73.0496 45.9096 73.1535 44.8019 72.5581 44.338C72.0804 43.9573 71.4435 43.8673 70.855 43.8603C70.3427 43.8673 69.7958 43.9226 69.3665 44.2273C68.9096 44.5803 68.6673 45.148 68.5842 45.7088C67.5596 45.7226 66.5281 45.7088 65.4965 45.7157C65.5381 44.6357 65.8012 43.4934 66.5835 42.7042ZM71.7065 48.5888C70.855 48.7896 69.955 48.8865 69.1727 49.3088C68.7712 49.5234 68.4804 49.9319 68.425 50.3819C68.3488 50.8665 68.4181 51.4342 68.8196 51.7665C69.2212 52.0919 69.7681 52.1265 70.2665 52.0919C71.2911 52.0226 72.2742 51.4134 72.7242 50.4857C73.1258 49.7311 72.9527 48.8519 73.015 48.0349C72.655 48.3673 72.1704 48.478 71.7065 48.5888Z" fill="#BDBDBD"/>
<path d="M82.2636 42.1362C83.0043 41.5408 83.9736 41.3193 84.9082 41.2916C85.9536 41.2431 87.0612 41.4646 87.892 42.1293C88.8197 42.8769 89.2974 44.0746 89.3182 45.2446V54.1408H86.0089V46.9062C86.0089 46.2277 86.0228 45.5146 85.7182 44.8985C85.4966 44.4416 84.9843 44.2269 84.5136 44.1646C83.8074 44.0677 83.0389 44.1023 82.4089 44.4762C81.9451 44.7462 81.6405 45.2239 81.4882 45.7223C81.2805 46.4077 81.3289 47.1277 81.322 47.8339V54.1546C80.2143 54.1477 79.1066 54.1754 78.0059 54.1408C78.0266 49.98 78.0128 45.8193 78.0128 41.6585C79.0651 41.6516 80.1243 41.6516 81.1766 41.6585C81.1697 42.2469 81.1766 42.8285 81.1697 43.4169C81.4812 42.9462 81.8066 42.4754 82.2636 42.1362Z" fill="#BDBDBD"/>
<path d="M167.929 37.3382C168.649 37.3382 169.376 37.3244 170.096 37.3451V37.7951C169.826 37.8228 169.556 37.7951 169.286 37.8159C169.293 38.5428 169.3 39.2698 169.286 39.9967C169.099 40.0036 168.912 40.0036 168.732 39.9967C168.718 39.2698 168.732 38.5428 168.725 37.809C168.462 37.8021 168.192 37.809 167.929 37.8021C167.922 37.6428 167.922 37.4905 167.929 37.3382ZM170.449 37.3382C170.726 37.3313 171.003 37.3244 171.28 37.3521C171.432 37.9682 171.577 38.5913 171.737 39.2075C171.951 38.5982 172.041 37.9544 172.228 37.3382H173.024V39.9828C172.851 40.0105 172.671 40.0036 172.498 39.9967C172.477 39.4359 172.526 38.8682 172.471 38.3075C172.318 38.8613 172.166 39.4221 172.021 39.9828C171.827 40.0105 171.633 40.0105 171.446 39.9828C171.294 39.4428 171.155 38.8959 171.003 38.3559C170.927 38.8959 170.989 39.4428 170.968 39.9898C170.795 39.9967 170.615 39.9967 170.442 39.9898C170.442 39.1036 170.442 38.2244 170.449 37.3382Z" fill="#BDBDBD"/>
</g>
<defs>
<clipPath id="clip0_18_4525">
<rect width="180" height="90" fill="white" transform="translate(0.03125 0.265625)"/>
</clipPath>
</defs>
</svg>
