<svg width="80" height="76" viewBox="0 0 80 76" fill="none" xmlns="http://www.w3.org/2000/svg">
<path fill-rule="evenodd" clip-rule="evenodd" d="M40 75.9C62.0914 75.9 80 58.9092 80 37.95C80 16.9908 62.0914 0 40 0C17.9086 0 0 16.9908 0 37.95C0 58.9092 17.9086 75.9 40 75.9Z" fill="#F04037" fill-opacity="0.1"/>
<path d="M37.5792 40.7H27.349C26.9725 40.7 26.667 40.3967 26.667 40.0231V23.7769C26.667 23.4032 26.9725 23.1 27.349 23.1H37.5792C37.9557 23.1 38.2612 23.4032 38.2612 23.7769V40.0231C38.2612 40.3967 37.9557 40.7 37.5792 40.7Z" fill="#F04037"/>
<path d="M37.5792 53.9H27.349C26.9725 53.9 26.667 53.5832 26.667 53.1929V44.7071C26.667 44.3168 26.9725 44 27.349 44H37.5792C37.9557 44 38.2612 44.3168 38.2612 44.7071V53.1929C38.2612 53.5832 37.9557 53.9 37.5792 53.9Z" fill="#F04037"/>
<path d="M53.8111 33H43.5809C43.2045 33 42.8989 32.6832 42.8989 32.2928V23.8071C42.8989 23.4168 43.2045 23.1 43.5809 23.1H53.8111C54.1876 23.1 54.4931 23.4168 54.4931 23.8071V32.2928C54.4931 32.6832 54.1876 33 53.8111 33Z" fill="#F04037"/>
<path d="M53.8111 53.8999H43.5809C43.2045 53.8999 42.8989 53.5967 42.8989 53.223V36.9768C42.8989 36.6032 43.2045 36.2999 43.5809 36.2999H53.8111C54.1876 36.2999 54.4931 36.6032 54.4931 36.9768V53.223C54.4931 53.5967 54.1876 53.8999 53.8111 53.8999Z" fill="#F04037"/>
</svg>
