<svg width="50" height="50" viewBox="0 0 50 50" fill="none" xmlns="http://www.w3.org/2000/svg">
<path d="M25 29.875C27.6924 29.875 29.875 27.6924 29.875 25C29.875 22.3076 27.6924 20.125 25 20.125C22.3076 20.125 20.125 22.3076 20.125 25C20.125 27.6924 22.3076 29.875 25 29.875Z" stroke="#1D1C20" stroke-width="1.5" stroke-linecap="round" stroke-linejoin="round"/>
<path d="M30.355 30.355L30.2575 30.2575M30.2575 19.7425L30.355 19.645L30.2575 19.7425ZM19.645 30.355L19.7425 30.2575L19.645 30.355ZM25 17.56V17.5V17.56ZM25 32.5V32.44V32.5ZM17.56 25H17.5H17.56ZM32.5 25H32.44H32.5ZM19.7425 19.7425L19.645 19.645L19.7425 19.7425Z" stroke="#1D1C20" stroke-width="2" stroke-linecap="round" stroke-linejoin="round"/>
</svg>
