<svg width="80" height="80" viewBox="0 0 80 80" fill="none" xmlns="http://www.w3.org/2000/svg">
<g id="Icon">
<path id="Oval" fill-rule="evenodd" clip-rule="evenodd" d="M40 80C62.0914 80 80 62.0914 80 40C80 17.9086 62.0914 0 40 0C17.9086 0 0 17.9086 0 40C0 62.0914 17.9086 80 40 80Z" fill="#FEDC5A" fill-opacity="0.1"/>
<g id="spaceship">
<path id="Path" d="M39.4204 30.3493C35.3637 29.5045 31.0398 31.3037 27.9693 35.2786C27.7599 35.5495 27.7826 35.9369 28.0222 36.1806L31.2079 39.4203C33.3435 35.8857 36.1324 32.8053 39.4204 30.3493Z" fill="#FEDC5A"/>
<path id="Path_2" d="M42.8979 51.1157L46.1478 54.2978C46.391 54.536 46.7775 54.5585 47.0478 54.3504C51.0388 51.2793 52.8355 46.9508 51.9531 42.8984C49.4993 46.1796 46.4253 48.9692 42.8979 51.1157V51.1157Z" fill="#FEDC5A"/>
<path id="Shape" fill-rule="evenodd" clip-rule="evenodd" d="M54.9448 25.5083C55.1362 25.4974 55.3226 25.571 55.455 25.7096C55.5891 25.8437 55.6604 26.0283 55.651 26.2177C54.6086 44.5533 38.602 50.9077 38.4396 50.9701C38.3629 50.9997 38.2815 51.0147 38.1993 51.0144C38.0213 51.0144 37.8506 50.9437 37.7248 50.8178L30.3414 43.4344C30.1548 43.248 30.0947 42.9697 30.1877 42.7229C30.2494 42.5605 36.5253 26.4701 54.9448 25.5083ZM39.5425 38.9326C39.5425 40.4154 40.7445 41.6174 42.2273 41.6174C43.7102 41.6174 44.9122 40.4154 44.9122 38.9326C44.9122 37.4498 43.7102 36.2477 42.2273 36.2477C40.7445 36.2477 39.5425 37.4498 39.5425 38.9326Z" fill="#FEDC5A"/>
<path id="Path_3" d="M32.3704 49.7913C30.6975 48.3303 27.9891 48.3303 26.3162 49.7913C24.7773 51.1375 24.3899 55.6364 24.3493 56.1453C24.336 56.318 24.4053 56.4878 24.5405 56.6141C24.6758 56.7404 24.8649 56.8119 25.0627 56.8115H25.1105C25.6919 56.7765 30.8322 56.4369 32.3704 55.0913C34.0406 53.627 34.0406 51.2556 32.3704 49.7913Z" fill="#FEDC5A"/>
</g>
</g>
</svg>
