<svg width="32" height="32" viewBox="0 0 32 32" fill="none" xmlns="http://www.w3.org/2000/svg">
<path id="Vector 13" d="M15.5035 32H16.4921C16.7015 32 16.8764 31.8302 16.898 31.6043C17.0581 29.9294 17.7419 23.3911 18.8832 20.8211C19.9142 18.4996 22.7493 16.7177 23.9233 16.0576C24.1734 15.9169 24.4608 16.1019 24.4643 16.4075C24.4749 17.326 24.4096 18.994 23.8363 19.6155C23.0277 20.4923 21.5114 21.0403 20.5006 21.4787C19.7006 21.8256 18.774 26.8401 18.4223 28.9171C18.361 29.2786 18.7132 29.5474 19.0101 29.3702L31.79 21.7392C32.0151 21.6047 32.0697 21.2799 31.9027 21.068L27.6308 15.6481C27.5349 15.5264 27.5075 15.3577 27.5594 15.2078L29.2554 10.3042C29.2812 10.2296 29.2878 10.1487 29.2745 10.0703L27.6297 0.360764C27.5679 -0.00390769 27.1434 -0.12718 26.9218 0.155233L18.3982 11.0217C18.3211 11.1199 18.2082 11.1765 18.0893 11.1765H13.6149C13.4944 11.1765 13.3801 11.1184 13.3031 11.018L4.97538 0.162767C4.75659 -0.122432 4.33054 -0.0038616 4.26541 0.360352L2.53024 10.064C2.51551 10.1464 2.52281 10.2316 2.5513 10.3096L4.33941 15.2074C4.39417 15.3574 4.36883 15.5279 4.27339 15.6516L0.0945696 21.0688C-0.0692329 21.2812 -0.0135906 21.6028 0.210037 21.7364L12.9661 29.3532C13.2679 29.5334 13.624 29.2516 13.5524 28.8862C13.1454 26.8089 12.1181 21.9094 11.403 21.4787C10.4933 20.9307 9.07812 20.2731 8.26945 19.6155C7.69622 19.1494 7.58012 17.4167 7.5611 16.4472C7.5549 16.1311 7.85282 15.9339 8.11033 16.0822C9.35195 16.797 12.3342 18.6914 13.1632 20.8211C14.0835 23.1855 14.9043 29.9269 15.0994 31.6137C15.1249 31.8349 15.298 32 15.5035 32Z" fill="white"/>
</svg>
