<svg width="122" height="32" viewBox="0 0 122 32" fill="none" xmlns="http://www.w3.org/2000/svg">
<path d="M15.5035 32H16.4921C16.7015 32 16.8764 31.8302 16.898 31.6043C17.0581 29.9294 17.7419 23.3911 18.8832 20.8211C19.9142 18.4996 22.7493 16.7177 23.9233 16.0576C24.1734 15.9169 24.4608 16.1019 24.4643 16.4075C24.4749 17.326 24.4096 18.994 23.8363 19.6155C23.0277 20.4923 21.5114 21.0403 20.5006 21.4787C19.7006 21.8256 18.774 26.8401 18.4223 28.9171C18.361 29.2786 18.7132 29.5474 19.0101 29.3702L31.79 21.7392C32.0151 21.6047 32.0697 21.2799 31.9027 21.068L27.6308 15.6481C27.5349 15.5264 27.5075 15.3577 27.5594 15.2078L29.2554 10.3042C29.2812 10.2296 29.2878 10.1487 29.2745 10.0703L27.6297 0.360764C27.5679 -0.00390769 27.1434 -0.12718 26.9218 0.155233L18.3982 11.0217C18.3211 11.1199 18.2082 11.1765 18.0893 11.1765H13.6149C13.4944 11.1765 13.3801 11.1184 13.3031 11.018L4.97538 0.162767C4.75659 -0.122432 4.33054 -0.0038616 4.26541 0.360352L2.53024 10.064C2.51551 10.1464 2.52281 10.2316 2.5513 10.3096L4.33941 15.2074C4.39417 15.3574 4.36883 15.5279 4.27339 15.6516L0.0945696 21.0688C-0.0692329 21.2812 -0.0135906 21.6028 0.210037 21.7364L12.9661 29.3532C13.2679 29.5334 13.624 29.2516 13.5524 28.8862C13.1454 26.8089 12.1181 21.9094 11.403 21.4787C10.4933 20.9307 9.07812 20.2731 8.26945 19.6155C7.69622 19.1494 7.58012 17.4167 7.5611 16.4472C7.5549 16.1311 7.85282 15.9339 8.11033 16.0822C9.35195 16.797 12.3342 18.6914 13.1632 20.8211C14.0835 23.1855 14.9043 29.9269 15.0994 31.6137C15.1249 31.8349 15.298 32 15.5035 32Z" fill="white"/>
<path d="M112.221 26.5154V11.3852H116.275V14.0251H116.432C116.707 13.086 117.168 12.3768 117.816 11.8974C118.464 11.4114 119.21 11.1685 120.054 11.1685C120.263 11.1685 120.489 11.1816 120.731 11.2079C120.973 11.2341 121.186 11.2702 121.369 11.3162V15.0397C121.173 14.9806 120.901 14.928 120.555 14.8821C120.208 14.8361 119.89 14.8131 119.603 14.8131C118.987 14.8131 118.438 14.9477 117.954 15.217C117.476 15.4796 117.096 15.8474 116.815 16.3202C116.54 16.793 116.403 17.3381 116.403 17.9554V26.5154H112.221Z" fill="white"/>
<path d="M104.691 26.5153V11.3851H108.872V26.5153H104.691ZM106.791 9.43473C106.17 9.43473 105.636 9.22787 105.191 8.81415C104.753 8.39387 104.534 7.8915 104.534 7.30704C104.534 6.72915 104.753 6.23335 105.191 5.81964C105.636 5.39935 106.17 5.18921 106.791 5.18921C107.413 5.18921 107.943 5.39935 108.381 5.81964C108.826 6.23335 109.049 6.72915 109.049 7.30704C109.049 7.8915 108.826 8.39387 108.381 8.81415C107.943 9.22787 107.413 9.43473 106.791 9.43473Z" fill="white"/>
<path d="M91.6782 17.7683V26.5154H87.4968V11.3852H91.4818V14.0547H91.6585C91.9922 13.1747 92.5517 12.4786 93.3369 11.9664C94.1222 11.4476 95.0743 11.1882 96.1932 11.1882C97.2402 11.1882 98.153 11.4181 98.9317 11.8778C99.7104 12.3374 100.316 12.9941 100.748 13.8478C101.179 14.695 101.395 15.7063 101.395 16.8818V26.5154H97.214V17.6304C97.2205 16.7045 96.985 15.9821 96.5073 15.4633C96.0296 14.9379 95.372 14.6753 94.5344 14.6753C93.9717 14.6753 93.4744 14.7968 93.0425 15.0397C92.6172 15.2827 92.2834 15.6373 92.0413 16.1036C91.8058 16.5633 91.6847 17.1182 91.6782 17.7683Z" fill="white"/>
<path d="M76.187 26.5154V11.3852H80.2407V14.0251H80.3978C80.6726 13.086 81.1339 12.3768 81.7817 11.8974C82.4296 11.4114 83.1755 11.1685 84.0196 11.1685C84.229 11.1685 84.4548 11.1816 84.6969 11.2079C84.939 11.2341 85.1517 11.2702 85.3349 11.3162V15.0397C85.1386 14.9806 84.867 14.928 84.5202 14.8821C84.1734 14.8361 83.8561 14.8131 83.5681 14.8131C82.953 14.8131 82.4034 14.9477 81.9192 15.217C81.4415 15.4796 81.062 15.8474 80.7806 16.3202C80.5058 16.793 80.3683 17.3381 80.3683 17.9554V26.5154H76.187Z" fill="white"/>
<path d="M66.5386 26.811C64.9878 26.811 63.6529 26.4957 62.534 25.8653C61.4215 25.2283 60.5643 24.3287 59.9623 23.1663C59.3603 21.9974 59.0593 20.6151 59.0593 19.0193C59.0593 17.4629 59.3603 16.097 59.9623 14.9215C60.5643 13.7461 61.4117 12.83 62.5045 12.1733C63.6038 11.5166 64.8929 11.1882 66.3717 11.1882C67.3664 11.1882 68.2923 11.3491 69.1495 11.6709C70.0132 11.9861 70.7657 12.4622 71.407 13.0992C72.0548 13.7362 72.5587 14.5374 72.9186 15.5027C73.2785 16.4615 73.4584 17.5844 73.4584 18.8715V20.024H60.7279V17.4235H69.5225C69.5225 16.8194 69.3916 16.2842 69.1299 15.8179C68.8681 15.3517 68.5049 14.9872 68.0404 14.7245C67.5823 14.4553 67.049 14.3207 66.4405 14.3207C65.8057 14.3207 65.243 14.4684 64.7522 14.7639C64.268 15.0529 63.8885 15.4436 63.6136 15.9361C63.3388 16.4221 63.1981 16.9638 63.1916 17.5614V20.0339C63.1916 20.7825 63.329 21.4294 63.6038 21.9744C63.8852 22.5195 64.2811 22.9398 64.7915 23.2353C65.3019 23.5308 65.9072 23.6785 66.6073 23.6785C67.0719 23.6785 67.4972 23.6129 67.8833 23.4815C68.2694 23.3502 68.5998 23.1532 68.8747 22.8905C69.1495 22.6278 69.3589 22.306 69.5028 21.9252L73.3701 22.1813C73.1738 23.1138 72.7713 23.9281 72.1628 24.6242C71.5608 25.3137 70.7821 25.8522 69.8267 26.2396C68.8779 26.6205 67.7819 26.811 66.5386 26.811Z" fill="white"/>
<path d="M44.6846 26.5154V6.3418H57.9942V9.85839H48.9346V14.6654H57.1108V18.182H48.9346V26.5154H44.6846Z" fill="white"/>
</svg>
