<svg width="181" height="91" viewBox="0 0 181 91" fill="none" xmlns="http://www.w3.org/2000/svg">
<g clip-path="url(#clip0_18_4523)">
<path d="M20.6555 53.8505L16.2316 38.6544C16.2316 38.6544 15.0824 35.179 20.2055 33.7667C25.3285 32.3544 48.6109 26.1582 48.6109 26.1582L45.2532 20.9174C45.2532 20.9174 44.1316 18.619 40.7739 20.5021C37.4162 22.3851 13.497 36.4113 13.497 36.4113C13.497 36.4113 10.7901 37.5328 12.7285 41.1813C14.667 44.8298 20.6555 53.8505 20.6555 53.8505Z" fill="#BDBDBD"/>
<path d="M22.1568 53.5598L17.913 38.5921C17.913 38.5921 17.0268 35.8229 20.0315 35.1167C23.0361 34.4105 49.4338 27.2798 49.4338 27.2798C49.4338 27.2798 52.9092 26.9267 53.6153 29.3429C54.3215 31.759 55.0276 34.5836 55.0276 34.5836H51.1992C51.1992 34.5836 46.1315 29.0452 37.353 31.5167C33.2892 32.6452 31.4615 34.8813 31.4615 34.8813L24.5107 34.7636C24.5107 34.7636 22.3299 34.9436 22.3299 37.4705V40.0044H27.1622L26.103 43.5975H22.3922L22.1568 53.5598Z" fill="#BDBDBD"/>
<path fill-rule="evenodd" clip-rule="evenodd" d="M55.5059 39.8867L56.8559 44.0752H60.9266V39.8867H55.5059Z" fill="#BDBDBD"/>
<path d="M36.4111 38.4736C36.4111 38.4736 33.1157 42.5652 32.998 45.2652H52.085C52.085 45.2652 51.2611 40.0036 48.6096 38.4736H36.4111Z" fill="#BDBDBD"/>
<path fill-rule="evenodd" clip-rule="evenodd" d="M41.2713 60.1852C33.4067 60.1852 27.0098 53.7883 27.0098 45.9236C27.0098 38.059 33.4067 31.6621 41.2713 31.6621C49.1359 31.6621 55.5328 38.059 55.5328 45.9236C55.5328 53.7883 49.1359 60.1852 41.2713 60.1852ZM41.2713 34.4383C34.9367 34.4383 29.779 39.589 29.779 45.9306C29.779 52.2721 34.9298 57.4229 41.2713 57.4229C47.6059 57.4229 52.7636 52.2721 52.7636 45.9306C52.7636 39.589 47.6128 34.4383 41.2713 34.4383Z" fill="#BDBDBD"/>
<path d="M30.61 54.9165L26.1931 59.4857L17.7885 66.6373C17.7885 66.6373 16.8193 67.9042 18.1762 69.3788C19.5331 70.8534 20.8277 69.7319 20.8277 69.7319L28.6023 60.8357L32.6108 56.9796L30.61 54.9165ZM31.4823 38.4742H34.8816C34.8816 38.4742 31.6139 41.8042 31.4823 45.2657H27.9447L31.4823 38.4742ZM65.9662 25.7288H68.3408V34.0504H73.4846V35.9819H65.9662V25.7288ZM77.0154 35.4765C76.1844 35.041 75.4896 34.3846 75.0077 33.5796C74.5231 32.7765 74.2808 31.8696 74.2808 30.8588C74.2808 29.855 74.5231 28.9481 75.0077 28.1381C75.4915 27.3345 76.1858 26.6786 77.0154 26.2411C77.867 25.7842 78.8293 25.5488 79.8954 25.5488C80.9616 25.5488 81.917 25.7773 82.7685 26.2411C83.62 26.6981 84.2847 27.335 84.7762 28.1381C85.2677 28.9481 85.51 29.8481 85.51 30.8588C85.51 31.8627 85.2677 32.7696 84.7762 33.5796C84.2925 34.3832 83.5982 35.0392 82.7685 35.4765C81.917 35.9334 80.9616 36.1688 79.8954 36.1688C78.8293 36.1619 77.867 35.9334 77.0154 35.4765ZM81.5362 33.725C82.0277 33.4481 82.4085 33.0604 82.6854 32.5619C82.9623 32.0634 83.1008 31.4957 83.1008 30.8588C83.1008 30.2219 82.9623 29.6542 82.6854 29.1558C82.4085 28.6573 82.0208 28.2696 81.5362 27.9927C81.0447 27.7158 80.4977 27.5773 79.8954 27.5773C79.2862 27.5773 78.7393 27.7158 78.2546 27.9927C77.7631 28.2696 77.3823 28.6573 77.1054 29.1558C76.8285 29.6542 76.69 30.2219 76.69 30.8588C76.69 31.4957 76.8285 32.0634 77.1054 32.5619C77.3823 33.0604 77.77 33.4481 78.2546 33.725C78.7462 34.0019 79.2931 34.1404 79.8954 34.1404C80.4977 34.1404 81.0447 34.0019 81.5362 33.725ZM89.6639 35.4765C88.8328 35.041 88.1381 34.3846 87.6562 33.5796C87.1716 32.7765 86.9293 31.8696 86.9293 30.8588C86.9293 29.855 87.1716 28.9481 87.6562 28.1381C88.14 27.3345 88.8342 26.6786 89.6639 26.2411C90.5223 25.7842 91.4777 25.5488 92.5439 25.5488C93.61 25.5488 94.5654 25.7773 95.417 26.2411C96.2466 26.6786 96.9409 27.3345 97.4246 28.1381C97.9162 28.9481 98.1585 29.8481 98.1585 30.8588C98.1585 31.8627 97.9162 32.7696 97.4246 33.5796C96.941 34.3832 96.2467 35.0392 95.417 35.4765C94.5654 35.9334 93.61 36.1688 92.5439 36.1688C91.4777 36.1619 90.5223 35.9334 89.6639 35.4765ZM94.1846 33.725C94.6762 33.4481 95.057 33.0604 95.3339 32.5619C95.6108 32.0634 95.7493 31.4957 95.7493 30.8588C95.7493 30.2219 95.6108 29.6542 95.3339 29.1558C95.057 28.6573 94.6693 28.2696 94.1846 27.9927C93.6931 27.7158 93.1462 27.5773 92.5439 27.5773C91.9346 27.5773 91.3877 27.7158 90.9031 27.9927C90.4116 28.2696 90.0308 28.6573 89.7539 29.1558C89.477 29.6542 89.3385 30.2219 89.3385 30.8588C89.3385 31.4957 89.477 32.0634 89.7539 32.5619C90.0308 33.0604 90.4185 33.4481 90.9031 33.725C91.3877 34.0019 91.9416 34.1404 92.5439 34.1404C93.1531 34.1404 93.7 34.0019 94.1846 33.725ZM103.967 31.9596L102.589 33.3996V35.9958H100.228V25.7288H102.589V30.5196L107.131 25.7288H109.768L105.518 30.305L110.018 35.9958H107.248L103.967 31.9596ZM130.067 25.7288L126.709 35.9888H124.162L121.905 29.0381L119.572 35.9888H117.038L113.666 25.7288H116.131L118.443 32.9427L120.859 25.7288H123.061L125.408 32.9981L127.796 25.7288H130.067ZM140.618 25.7288V35.9888H138.243V31.7796H133.584V35.9888H131.209V25.7288H133.584V29.7719H138.243V25.7288H140.618ZM144.758 35.4765C143.927 35.041 143.232 34.3846 142.75 33.5796C142.265 32.7765 142.023 31.8696 142.023 30.8588C142.023 29.855 142.265 28.9481 142.75 28.1381C143.234 27.3345 143.928 26.6786 144.758 26.2411C145.616 25.7842 146.572 25.5488 147.638 25.5488C148.704 25.5488 149.659 25.7773 150.511 26.2411C151.34 26.6786 152.035 27.3345 152.518 28.1381C153.01 28.9481 153.252 29.8481 153.252 30.8588C153.252 31.8627 153.01 32.7696 152.518 33.5796C152.035 34.3832 151.341 35.0392 150.511 35.4765C149.659 35.9334 148.704 36.1688 147.638 36.1688C146.578 36.1619 145.616 35.9334 144.758 35.4765ZM149.285 33.725C149.777 33.4481 150.158 33.0604 150.435 32.5619C150.712 32.0634 150.85 31.4957 150.85 30.8588C150.85 30.2219 150.712 29.6542 150.435 29.1558C150.158 28.6573 149.77 28.2696 149.285 27.9927C148.794 27.7158 148.247 27.5773 147.645 27.5773C147.035 27.5773 146.488 27.7158 146.004 27.9927C145.512 28.2696 145.132 28.6573 144.855 29.1558C144.578 29.6542 144.439 30.2219 144.439 30.8588C144.439 31.4957 144.578 32.0634 144.855 32.5619C145.132 33.0604 145.519 33.4481 146.004 33.725C146.488 34.0019 147.042 34.1404 147.645 34.1404C148.247 34.1404 148.794 34.0019 149.285 33.725ZM160.965 35.8365C160.21 35.615 159.601 35.3311 159.137 34.9781L159.947 33.1919C160.383 33.5173 160.909 33.7734 161.518 33.9673C162.128 34.1611 162.73 34.2581 163.332 34.2581C164.004 34.2581 164.502 34.1542 164.828 33.9604C165.153 33.7665 165.312 33.4965 165.312 33.1642C165.312 32.9219 165.215 32.7142 165.028 32.555C164.842 32.3958 164.592 32.2642 164.295 32.1673C163.997 32.0704 163.595 31.9596 163.083 31.8419C162.301 31.655 161.664 31.4681 161.165 31.2881C160.667 31.1011 160.238 30.8034 159.885 30.395C159.525 29.9865 159.352 29.4396 159.352 28.7542C159.352 28.1588 159.511 27.6188 159.836 27.1342C160.162 26.6496 160.646 26.2688 161.297 25.985C161.948 25.7011 162.737 25.5627 163.678 25.5627C164.336 25.5627 164.973 25.6388 165.596 25.7981C166.219 25.9573 166.766 26.1788 167.237 26.4696L166.503 28.2696C165.555 27.7296 164.606 27.4596 163.658 27.4596C162.993 27.4596 162.502 27.5704 162.183 27.785C161.865 27.9996 161.705 28.2834 161.705 28.6365C161.705 28.9896 161.885 29.2527 162.252 29.4188C162.619 29.5919 163.18 29.7581 163.928 29.9242C164.71 30.1111 165.347 30.2981 165.845 30.4781C166.344 30.665 166.773 30.9558 167.126 31.3573C167.479 31.7588 167.659 32.2988 167.659 32.9842C167.659 33.5727 167.493 34.1058 167.168 34.5904C166.842 35.075 166.351 35.4558 165.693 35.7396C165.035 36.0234 164.239 36.1619 163.305 36.1619C162.508 36.1619 161.719 36.0511 160.965 35.8365ZM69.0746 53.4142C68.1327 52.9154 67.345 52.1684 66.797 51.2542C66.2431 50.3334 65.9662 49.295 65.9662 48.1319C65.9662 46.9757 66.2431 45.9304 66.797 45.0165C67.3508 44.0957 68.1054 43.3757 69.0746 42.8565C70.037 42.3373 71.1239 42.0811 72.3285 42.0811C73.3462 42.0811 74.26 42.2611 75.077 42.6142C75.8939 42.9742 76.5862 43.4865 77.14 44.1511L75.4023 45.7573C74.6131 44.8434 73.63 44.3865 72.46 44.3865C71.7331 44.3865 71.0893 44.5457 70.5216 44.8642C69.9539 45.1827 69.5108 45.6257 69.1923 46.1934C68.8739 46.7611 68.7146 47.4119 68.7146 48.1319C68.7146 48.8588 68.8739 49.5027 69.1923 50.0704C69.5108 50.6381 69.9539 51.0811 70.5216 51.3996C71.0893 51.7181 71.74 51.8773 72.46 51.8773C73.63 51.8773 74.6131 51.4134 75.4023 50.4858L77.14 52.0919C76.5793 52.7704 75.8939 53.2896 75.0631 53.6496C74.2393 54.0096 73.3185 54.1827 72.3008 54.1827C71.117 54.1896 70.037 53.9265 69.0746 53.4142ZM90.9585 42.2819V53.9888H88.2516V49.1911H82.9346V53.9888H80.2277V42.2819H82.9346V46.8996H88.2516V42.2819H90.9585ZM102.7 51.4827H97.2654L96.227 53.9888H93.4508L98.6708 42.2819H101.35L106.584 53.9888H103.738L102.7 51.4827ZM101.848 49.4196L99.9931 44.9404L98.1308 49.4196H101.848ZM116.512 53.9888L114.255 50.7281H111.762V53.9888H109.055V42.2819H114.123C115.162 42.2819 116.062 42.455 116.823 42.8011C117.585 43.1473 118.173 43.6388 118.588 44.2757C119.004 44.9127 119.205 45.6604 119.205 46.5327C119.205 47.405 118.997 48.1527 118.575 48.7827C118.159 49.4127 117.564 49.8973 116.795 50.2296L119.419 53.9958H116.512V53.9888ZM115.826 45.0165C115.404 44.6634 114.781 44.4904 113.971 44.4904H111.762V48.5681H113.971C114.788 48.5681 115.404 48.3881 115.826 48.035C116.248 47.6819 116.463 47.1765 116.463 46.5327C116.463 45.8681 116.255 45.3696 115.826 45.0165ZM130.517 47.9519H132.995V52.7011C132.358 53.1788 131.625 53.5457 130.787 53.8019C129.949 54.0581 129.112 54.1896 128.26 54.1896C127.042 54.1896 125.955 53.9334 124.978 53.4142C124.009 52.895 123.248 52.175 122.694 51.2542C122.14 50.3334 121.863 49.295 121.863 48.1319C121.863 46.9757 122.14 45.9304 122.694 45.0165C123.248 44.0957 124.009 43.3757 124.992 42.8565C125.975 42.3373 127.076 42.0811 128.302 42.0811C129.326 42.0811 130.261 42.2542 131.092 42.6004C131.929 42.9465 132.628 43.445 133.196 44.1027L131.458 45.7088C130.621 44.8296 129.61 44.3865 128.433 44.3865C127.685 44.3865 127.021 44.5458 126.439 44.8573C125.87 45.1593 125.399 45.6182 125.082 46.1796C124.757 46.7473 124.598 47.3981 124.598 48.1388C124.598 48.8658 124.757 49.5096 125.082 50.0773C125.408 50.645 125.858 51.0881 126.432 51.4065C127.007 51.725 127.665 51.8842 128.398 51.8842C129.181 51.8842 129.88 51.7181 130.503 51.3857V47.9519H130.517ZM136.755 42.2819H139.462V53.9888H136.755V42.2819ZM154.228 42.2819V53.9888H152.006L146.17 46.8788V53.9888H143.491V42.2819H145.734L151.556 49.3919V42.2819H154.228ZM166.171 47.9519H168.649V52.7011C168.012 53.1788 167.278 53.5457 166.441 53.8019C165.603 54.0581 164.765 54.1896 163.914 54.1896C162.695 54.1896 161.608 53.9334 160.632 53.4142C159.663 52.895 158.902 52.175 158.348 51.2542C157.794 50.3334 157.517 49.295 157.517 48.1319C157.517 46.9757 157.794 45.9304 158.348 45.0165C158.902 44.0957 159.663 43.3757 160.646 42.8565C161.629 42.3373 162.73 42.0811 163.955 42.0811C164.98 42.0811 165.915 42.2542 166.745 42.6004C167.583 42.9465 168.282 43.445 168.85 44.1027L167.112 45.7088C166.275 44.8296 165.264 44.3865 164.087 44.3865C163.339 44.3865 162.675 44.5458 162.093 44.8573C161.524 45.1593 161.053 45.6182 160.736 46.1796C160.411 46.7473 160.252 47.3981 160.252 48.1388C160.252 48.8658 160.411 49.5096 160.736 50.0773C161.062 50.645 161.512 51.0881 162.086 51.4065C162.661 51.725 163.318 51.8842 164.052 51.8842C164.835 51.8842 165.534 51.7181 166.157 51.3857V47.9519H166.171Z" fill="#BDBDBD"/>
<path fill-rule="evenodd" clip-rule="evenodd" d="M127.541 47.9377H131.882V50.1184H127.541V47.9377ZM163.195 47.9377H167.536V50.1184H163.195V47.9377ZM154.679 25.3477V30.7615H156.161L157.532 25.3477H154.679Z" fill="#BDBDBD"/>
</g>
<defs>
<clipPath id="clip0_18_4523">
<rect width="180" height="90" fill="white" transform="translate(0.03125 0.265625)"/>
</clipPath>
</defs>
</svg>
