<svg width="180" height="90" viewBox="0 0 180 90" fill="none" xmlns="http://www.w3.org/2000/svg">
<g id="look-who&#39;s-charging-JDu0ibpn 1" clip-path="url(#clip0_8_3802)">
<path id="Vector" d="M20.6242 53.5849L16.2004 38.3887C16.2004 38.3887 15.0511 34.9134 20.1742 33.5011C25.2973 32.0887 48.5796 25.8926 48.5796 25.8926L45.2219 20.6518C45.2219 20.6518 44.1004 18.3534 40.7427 20.2364C37.385 22.1195 13.4658 36.1457 13.4658 36.1457C13.4658 36.1457 10.7588 37.2672 12.6973 40.9157C14.6358 44.5641 20.6242 53.5849 20.6242 53.5849Z" fill="#3C3C3C"/>
<path id="Vector_2" d="M22.1256 53.2942L17.8817 38.3265C17.8817 38.3265 16.9956 35.5572 20.0002 34.8511C23.0048 34.1449 49.4025 27.0142 49.4025 27.0142C49.4025 27.0142 52.8779 26.6611 53.5841 29.0772C54.2902 31.4934 54.9964 34.318 54.9964 34.318H51.1679C51.1679 34.318 46.1002 28.7795 37.3217 31.2511C33.2579 32.3795 31.4302 34.6157 31.4302 34.6157L24.4794 34.498C24.4794 34.498 22.2987 34.678 22.2987 37.2049V39.7388H27.131L26.0717 43.3318H22.361L22.1256 53.2942Z" fill="#3C3C3C"/>
<path id="Vector_3" fill-rule="evenodd" clip-rule="evenodd" d="M55.4746 39.6211L56.8246 43.8096H60.8954V39.6211H55.4746Z" fill="#3C3C3C"/>
<path id="Vector_4" d="M36.3799 38.208C36.3799 38.208 33.0845 42.2995 32.9668 44.9995H52.0537C52.0537 44.9995 51.2299 39.738 48.5783 38.208H36.3799Z" fill="#3C3C3C"/>
<path id="Vector_5" fill-rule="evenodd" clip-rule="evenodd" d="M41.2401 59.9196C33.3754 59.9196 26.9785 53.5226 26.9785 45.658C26.9785 37.7934 33.3754 31.3965 41.2401 31.3965C49.1047 31.3965 55.5016 37.7934 55.5016 45.658C55.5016 53.5226 49.1047 59.9196 41.2401 59.9196ZM41.2401 34.1726C34.9054 34.1726 29.7477 39.3234 29.7477 45.6649C29.7477 52.0065 34.8985 57.1573 41.2401 57.1573C47.5747 57.1573 52.7324 52.0065 52.7324 45.6649C52.7324 39.3234 47.5816 34.1726 41.2401 34.1726Z" fill="#3C3C3C"/>
<path id="Vector_6" d="M30.5788 54.6509L26.1619 59.2201L17.7572 66.3717C17.7572 66.3717 16.788 67.6386 18.1449 69.1132C19.5019 70.5878 20.7965 69.4663 20.7965 69.4663L28.5711 60.5701L32.5796 56.714L30.5788 54.6509ZM31.4511 38.2086H34.8503C34.8503 38.2086 31.5826 41.5386 31.4511 45.0001H27.9134L31.4511 38.2086ZM65.9349 25.4632H68.3096V33.7847H73.4534V35.7163H65.9349V25.4632ZM76.9842 35.2109C76.1531 34.7754 75.4584 34.119 74.9765 33.314C74.4919 32.5109 74.2495 31.604 74.2495 30.5932C74.2495 29.5894 74.4919 28.6824 74.9765 27.8724C75.4603 27.0689 76.1545 26.413 76.9842 25.9755C77.8357 25.5186 78.798 25.2832 79.8642 25.2832C80.9303 25.2832 81.8857 25.5117 82.7372 25.9755C83.5888 26.4324 84.2534 27.0694 84.7449 27.8724C85.2365 28.6824 85.4788 29.5824 85.4788 30.5932C85.4788 31.597 85.2365 32.504 84.7449 33.314C84.2613 34.1176 83.567 34.7736 82.7372 35.2109C81.8857 35.6678 80.9303 35.9032 79.8642 35.9032C78.798 35.8963 77.8357 35.6678 76.9842 35.2109ZM81.5049 33.4594C81.9965 33.1824 82.3772 32.7947 82.6542 32.2963C82.9311 31.7978 83.0695 31.2301 83.0695 30.5932C83.0695 29.9563 82.9311 29.3886 82.6542 28.8901C82.3772 28.3917 81.9896 28.004 81.5049 27.727C81.0134 27.4501 80.4665 27.3117 79.8642 27.3117C79.2549 27.3117 78.708 27.4501 78.2234 27.727C77.7319 28.004 77.3511 28.3917 77.0742 28.8901C76.7972 29.3886 76.6588 29.9563 76.6588 30.5932C76.6588 31.2301 76.7972 31.7978 77.0742 32.2963C77.3511 32.7947 77.7388 33.1824 78.2234 33.4594C78.7149 33.7363 79.2619 33.8747 79.8642 33.8747C80.4665 33.8747 81.0134 33.7363 81.5049 33.4594ZM89.6326 35.2109C88.8016 34.7754 88.1068 34.119 87.6249 33.314C87.1403 32.5109 86.898 31.604 86.898 30.5932C86.898 29.5894 87.1403 28.6824 87.6249 27.8724C88.1087 27.0689 88.803 26.413 89.6326 25.9755C90.4911 25.5186 91.4465 25.2832 92.5126 25.2832C93.5788 25.2832 94.5342 25.5117 95.3857 25.9755C96.2154 26.413 96.9096 27.0689 97.3934 27.8724C97.8849 28.6824 98.1272 29.5824 98.1272 30.5932C98.1272 31.597 97.8849 32.504 97.3934 33.314C96.9097 34.1176 96.2154 34.7736 95.3857 35.2109C94.5342 35.6678 93.5788 35.9032 92.5126 35.9032C91.4465 35.8963 90.4911 35.6678 89.6326 35.2109ZM94.1534 33.4594C94.6449 33.1824 95.0257 32.7947 95.3026 32.2963C95.5796 31.7978 95.718 31.2301 95.718 30.5932C95.718 29.9563 95.5796 29.3886 95.3026 28.8901C95.0257 28.3917 94.638 28.004 94.1534 27.727C93.6619 27.4501 93.1149 27.3117 92.5126 27.3117C91.9034 27.3117 91.3565 27.4501 90.8719 27.727C90.3803 28.004 89.9996 28.3917 89.7226 28.8901C89.4457 29.3886 89.3072 29.9563 89.3072 30.5932C89.3072 31.2301 89.4457 31.7978 89.7226 32.2963C89.9996 32.7947 90.3872 33.1824 90.8719 33.4594C91.3565 33.7363 91.9103 33.8747 92.5126 33.8747C93.1219 33.8747 93.6688 33.7363 94.1534 33.4594ZM103.936 31.694L102.558 33.134V35.7301H100.197V25.4632H102.558V30.254L107.1 25.4632H109.737L105.486 30.0394L109.986 35.7301H107.217L103.936 31.694ZM130.036 25.4632L126.678 35.7232H124.13L121.873 28.7724L119.54 35.7232H117.006L113.635 25.4632H116.1L118.412 32.677L120.828 25.4632H123.03L125.376 32.7324L127.765 25.4632H130.036ZM140.586 25.4632V35.7232H138.212V31.514H133.553V35.7232H131.178V25.4632H133.553V29.5063H138.212V25.4632H140.586ZM144.726 35.2109C143.895 34.7754 143.201 34.119 142.719 33.314C142.234 32.5109 141.992 31.604 141.992 30.5932C141.992 29.5894 142.234 28.6824 142.719 27.8724C143.203 27.0689 143.897 26.413 144.726 25.9755C145.585 25.5186 146.54 25.2832 147.606 25.2832C148.673 25.2832 149.628 25.5117 150.48 25.9755C151.309 26.413 152.003 27.0689 152.487 27.8724C152.979 28.6824 153.221 29.5824 153.221 30.5932C153.221 31.597 152.979 32.504 152.487 33.314C152.004 34.1176 151.309 34.7736 150.48 35.2109C149.628 35.6678 148.673 35.9032 147.606 35.9032C146.547 35.8963 145.585 35.6678 144.726 35.2109ZM149.254 33.4594C149.746 33.1824 150.126 32.7947 150.403 32.2963C150.68 31.7978 150.819 31.2301 150.819 30.5932C150.819 29.9563 150.68 29.3886 150.403 28.8901C150.126 28.3917 149.739 28.004 149.254 27.727C148.763 27.4501 148.216 27.3117 147.613 27.3117C147.004 27.3117 146.457 27.4501 145.973 27.727C145.481 28.004 145.1 28.3917 144.823 28.8901C144.546 29.3886 144.408 29.9563 144.408 30.5932C144.408 31.2301 144.546 31.7978 144.823 32.2963C145.1 32.7947 145.488 33.1824 145.973 33.4594C146.457 33.7363 147.011 33.8747 147.613 33.8747C148.216 33.8747 148.763 33.7363 149.254 33.4594ZM160.933 35.5709C160.179 35.3494 159.57 35.0655 159.106 34.7124L159.916 32.9263C160.352 33.2517 160.878 33.5078 161.487 33.7017C162.096 33.8955 162.699 33.9924 163.301 33.9924C163.973 33.9924 164.471 33.8886 164.796 33.6947C165.122 33.5009 165.281 33.2309 165.281 32.8986C165.281 32.6563 165.184 32.4486 164.997 32.2894C164.81 32.1301 164.561 31.9986 164.263 31.9017C163.966 31.8047 163.564 31.694 163.052 31.5763C162.27 31.3894 161.633 31.2024 161.134 31.0224C160.636 30.8355 160.206 30.5378 159.853 30.1294C159.493 29.7209 159.32 29.174 159.32 28.4886C159.32 27.8932 159.48 27.3532 159.805 26.8686C160.13 26.384 160.615 26.0032 161.266 25.7194C161.916 25.4355 162.706 25.297 163.647 25.297C164.305 25.297 164.942 25.3732 165.565 25.5324C166.188 25.6917 166.735 25.9132 167.206 26.204L166.472 28.004C165.523 27.464 164.575 27.194 163.626 27.194C162.962 27.194 162.47 27.3047 162.152 27.5194C161.833 27.734 161.674 28.0178 161.674 28.3709C161.674 28.724 161.854 28.987 162.221 29.1532C162.588 29.3263 163.149 29.4924 163.896 29.6586C164.679 29.8455 165.316 30.0324 165.814 30.2124C166.313 30.3994 166.742 30.6901 167.095 31.0917C167.448 31.4932 167.628 32.0332 167.628 32.7186C167.628 33.307 167.462 33.8401 167.136 34.3247C166.811 34.8094 166.32 35.1901 165.662 35.474C165.004 35.7578 164.208 35.8963 163.273 35.8963C162.477 35.8963 161.688 35.7855 160.933 35.5709ZM69.0434 53.1486C68.1014 52.6497 67.3138 51.9028 66.7657 50.9886C66.2119 50.0678 65.9349 49.0294 65.9349 47.8663C65.9349 46.7101 66.2119 45.6647 66.7657 44.7509C67.3196 43.8301 68.0742 43.1101 69.0434 42.5909C70.0057 42.0717 71.0926 41.8155 72.2972 41.8155C73.3149 41.8155 74.2288 41.9955 75.0457 42.3486C75.8626 42.7086 76.5549 43.2209 77.1088 43.8855L75.3711 45.4917C74.5819 44.5778 73.5988 44.1209 72.4288 44.1209C71.7019 44.1209 71.058 44.2801 70.4903 44.5986C69.9226 44.917 69.4796 45.3601 69.1611 45.9278C68.8426 46.4955 68.6834 47.1463 68.6834 47.8663C68.6834 48.5932 68.8426 49.237 69.1611 49.8047C69.4796 50.3724 69.9226 50.8155 70.4903 51.134C71.058 51.4524 71.7088 51.6117 72.4288 51.6117C73.5988 51.6117 74.5819 51.1478 75.3711 50.2201L77.1088 51.8263C76.548 52.5047 75.8626 53.024 75.0319 53.384C74.208 53.744 73.2872 53.917 72.2696 53.917C71.0857 53.924 70.0057 53.6609 69.0434 53.1486ZM90.9272 42.0163V53.7232H88.2203V48.9255H82.9034V53.7232H80.1965V42.0163H82.9034V46.634H88.2203V42.0163H90.9272ZM102.669 51.2171H97.2342L96.1957 53.7232H93.4196L98.6395 42.0163H101.319L106.553 53.7232H103.707L102.669 51.2171ZM101.817 49.154L99.9619 44.6747L98.0995 49.154H101.817ZM116.48 53.7232L114.223 50.4624H111.731V53.7232H109.024V42.0163H114.092C115.13 42.0163 116.03 42.1894 116.792 42.5355C117.553 42.8817 118.142 43.3732 118.557 44.0101C118.973 44.647 119.173 45.3947 119.173 46.267C119.173 47.1394 118.966 47.887 118.543 48.517C118.128 49.147 117.533 49.6317 116.764 49.964L119.388 53.7301H116.48V53.7232ZM115.795 44.7509C115.373 44.3978 114.75 44.2247 113.94 44.2247H111.731V48.3024H113.94C114.756 48.3024 115.373 48.1224 115.795 47.7694C116.217 47.4163 116.432 46.9109 116.432 46.267C116.432 45.6024 116.224 45.104 115.795 44.7509ZM130.486 47.6863H132.964V52.4355C132.327 52.9132 131.593 53.2801 130.756 53.5363C129.918 53.7924 129.08 53.924 128.229 53.924C127.01 53.924 125.923 53.6678 124.947 53.1486C123.978 52.6294 123.216 51.9094 122.663 50.9886C122.109 50.0678 121.832 49.0294 121.832 47.8663C121.832 46.7101 122.109 45.6647 122.663 44.7509C123.216 43.8301 123.978 43.1101 124.961 42.5909C125.944 42.0717 127.045 41.8155 128.27 41.8155C129.295 41.8155 130.23 41.9886 131.06 42.3347C131.898 42.6809 132.597 43.1794 133.165 43.837L131.427 45.4432C130.59 44.564 129.579 44.1209 128.402 44.1209C127.654 44.1209 126.99 44.2801 126.408 44.5917C125.839 44.8937 125.368 45.3526 125.051 45.914C124.726 46.4817 124.566 47.1324 124.566 47.8732C124.566 48.6001 124.726 49.244 125.051 49.8117C125.376 50.3794 125.826 50.8224 126.401 51.1409C126.976 51.4594 127.633 51.6186 128.367 51.6186C129.15 51.6186 129.849 51.4524 130.472 51.1201V47.6863H130.486ZM136.723 42.0163H139.43V53.7232H136.723V42.0163ZM154.197 42.0163V53.7232H151.975L146.139 46.6132V53.7232H143.46V42.0163H145.703L151.525 49.1263V42.0163H154.197ZM166.14 47.6863H168.618V52.4355C167.981 52.9132 167.247 53.2801 166.41 53.5363C165.572 53.7924 164.734 53.924 163.883 53.924C162.664 53.924 161.577 53.6678 160.601 53.1486C159.632 52.6294 158.87 51.9094 158.316 50.9886C157.763 50.0678 157.486 49.0294 157.486 47.8663C157.486 46.7101 157.763 45.6647 158.316 44.7509C158.87 43.8301 159.632 43.1101 160.615 42.5909C161.598 42.0717 162.699 41.8155 163.924 41.8155C164.949 41.8155 165.883 41.9886 166.714 42.3347C167.552 42.6809 168.251 43.1794 168.819 43.837L167.081 45.4432C166.243 44.564 165.233 44.1209 164.056 44.1209C163.308 44.1209 162.643 44.2801 162.062 44.5917C161.492 44.8937 161.022 45.3526 160.705 45.914C160.38 46.4817 160.22 47.1324 160.22 47.8732C160.22 48.6001 160.38 49.244 160.705 49.8117C161.03 50.3794 161.48 50.8224 162.055 51.1409C162.63 51.4594 163.287 51.6186 164.021 51.6186C164.803 51.6186 165.503 51.4524 166.126 51.1201V47.6863H166.14Z" fill="#3C3C3C"/>
<path id="Vector_7" fill-rule="evenodd" clip-rule="evenodd" d="M127.51 47.672H131.851V49.8528H127.51V47.672ZM163.164 47.672H167.504V49.8528H163.164V47.672ZM154.648 25.082V30.4959H156.13L157.501 25.082H154.648Z" fill="#3C3C3C"/>
</g>
<defs>
<clipPath id="clip0_8_3802">
<rect width="180" height="90" fill="white"/>
</clipPath>
</defs>
</svg>
