<svg width="15" height="16" viewBox="0 0 15 16" fill="none" xmlns="http://www.w3.org/2000/svg">
<path d="M13.9255 6.75482L10.0705 5.26532L8.66865 1.16939C8.58121 0.913766 8.42184 0.692934 8.21219 0.536882C8.00254 0.38083 7.75276 0.297119 7.49678 0.297119C7.2408 0.297119 6.99102 0.38083 6.78136 0.536882C6.57171 0.692934 6.41234 0.913766 6.3249 1.16939L4.92303 5.26532L1.06803 6.75482C0.827444 6.84772 0.619602 7.01705 0.472729 7.23981C0.325857 7.46256 0.24707 7.72795 0.24707 7.99993C0.24707 8.27191 0.325857 8.5373 0.472729 8.76006C0.619602 8.98282 0.827444 9.15215 1.06803 9.24505L4.92303 10.7345L6.3249 14.8305C6.41234 15.0861 6.57171 15.3069 6.78136 15.463C6.99102 15.619 7.2408 15.7027 7.49678 15.7027C7.75276 15.7027 8.00254 15.619 8.21219 15.463C8.42184 15.3069 8.58121 15.0861 8.66865 14.8305L10.0705 10.7345L13.9255 9.24505C14.1661 9.15215 14.374 8.98282 14.5208 8.76006C14.6677 8.5373 14.7465 8.27191 14.7465 7.99993C14.7465 7.72795 14.6677 7.46256 14.5208 7.23981C14.374 7.01705 14.1661 6.84772 13.9255 6.75482ZM9.4474 9.27825C9.27595 9.34428 9.12024 9.44952 8.99129 9.58653C8.86234 9.72354 8.76329 9.88898 8.70115 10.0711L7.49678 13.5907L6.2924 10.0711C6.23026 9.88898 6.13121 9.72354 6.00226 9.58653C5.87331 9.44952 5.7176 9.34428 5.54615 9.27825L2.23365 7.99993L5.54615 6.72028C5.7176 6.65426 5.87331 6.54902 6.00226 6.41201C6.13121 6.275 6.23026 6.10956 6.2924 5.92739L7.49678 2.40786L8.70115 5.92739C8.76329 6.10956 8.86234 6.275 8.99129 6.41201C9.12024 6.54902 9.27595 6.65426 9.4474 6.72028L12.7599 7.99993L9.4474 9.27825Z" fill="#33C6AB"/>
</svg>
