<svg width="80" height="80" viewBox="0 0 80 80" fill="none" xmlns="http://www.w3.org/2000/svg">
<path fill-rule="evenodd" clip-rule="evenodd" d="M40 80C62.0914 80 80 62.0914 80 40C80 17.9086 62.0914 0 40 0C17.9086 0 0 17.9086 0 40C0 62.0914 17.9086 80 40 80Z" fill="#5454D4" fill-opacity="0.1"/>
<path d="M41.7397 56.8115H23.3745C21.9914 56.8115 20.8701 55.6641 20.8701 54.2486V26.9107C20.8701 25.4952 21.9914 24.3478 23.3745 24.3478H41.7397V26.0564H23.3745C22.9134 26.0564 22.5397 26.4389 22.5397 26.9107V54.2486C22.5397 54.7204 22.9134 55.1029 23.3745 55.1029H41.7397V56.8115Z" fill="#5454D4"/>
<path fill-rule="evenodd" clip-rule="evenodd" d="M44.0586 24.3478H57.7275C59.143 24.3478 60.2905 25.4952 60.2905 26.9107V54.2486C60.2905 55.6641 59.143 56.8115 57.7275 56.8115H44.0586V24.3478ZM49.1844 48.2685H55.1646C55.6364 48.2685 56.0189 47.886 56.0189 47.4142C56.0189 46.9424 55.6364 46.5599 55.1646 46.5599H49.1844C48.7126 46.5599 48.3301 46.9424 48.3301 47.4142C48.3301 47.886 48.7126 48.2685 49.1844 48.2685ZM55.1646 41.434H49.1844C48.7126 41.434 48.3301 41.0515 48.3301 40.5797C48.3301 40.1079 48.7126 39.7254 49.1844 39.7254H55.1646C55.6364 39.7254 56.0189 40.1079 56.0189 40.5797C56.0189 41.0515 55.6364 41.434 55.1646 41.434ZM49.1844 34.5995H55.1646C55.6364 34.5995 56.0189 34.217 56.0189 33.7452C56.0189 33.2733 55.6364 32.8909 55.1646 32.8909H49.1844C48.7126 32.8909 48.3301 33.2733 48.3301 33.7452C48.3301 34.217 48.7126 34.5995 49.1844 34.5995Z" fill="#5454D4"/>
</svg>
