<svg width="80" height="80" viewBox="0 0 80 80" fill="none" xmlns="http://www.w3.org/2000/svg">
<g id="Icon">
<path id="Oval" fill-rule="evenodd" clip-rule="evenodd" d="M40 80C62.0914 80 80 62.0914 80 40C80 17.9086 62.0914 0 40 0C17.9086 0 0 17.9086 0 40C0 62.0914 17.9086 80 40 80Z" fill="#F04037" fill-opacity="0.1"/>
<g id="chat-content">
<path id="Shape" fill-rule="evenodd" clip-rule="evenodd" d="M54.1904 24.3478H26.9692C24.8812 24.3478 23.1885 26.0781 23.1885 28.2125V45.2171C23.1885 46.2421 23.5868 47.2251 24.2958 47.9499C25.0048 48.6746 25.9665 49.0818 26.9692 49.0818H34.1677L39.99 56.5213C40.1335 56.7048 40.3508 56.8115 40.5805 56.8115C40.8103 56.8115 41.0276 56.7048 41.1711 56.5213L46.9919 49.0818H54.1904C56.2784 49.0818 57.9711 47.3515 57.9711 45.2171V28.2125C57.9711 26.0781 56.2784 24.3478 54.1904 24.3478ZM42.1738 40.5797H32.0288C31.6286 40.5797 31.3042 40.3202 31.3042 40C31.3042 39.6799 31.6286 39.4203 32.0288 39.4203H42.1738C42.574 39.4203 42.8984 39.6799 42.8984 40C42.8984 40.3202 42.574 40.5797 42.1738 40.5797ZM32.0623 33.6231H50.2563C50.6749 33.6231 51.0143 33.3636 51.0143 33.0434C51.0143 32.7232 50.6749 32.4637 50.2563 32.4637H32.0623C31.6436 32.4637 31.3042 32.7232 31.3042 33.0434C31.3042 33.3636 31.6436 33.6231 32.0623 33.6231Z" fill="#F04037"/>
</g>
</g>
</svg>
