<svg width="181" height="91" viewBox="0 0 181 91" fill="none" xmlns="http://www.w3.org/2000/svg">
<g clip-path="url(#clip0_18_4524)">
<path d="M22.1087 42.5795C24.2825 42.538 26.4564 42.5934 28.6233 42.5449C28.6371 44.7188 28.651 46.8857 28.6164 49.0595C26.4356 49.0388 24.2617 49.0388 22.0879 49.0595L22.0948 48.9626C22.1156 46.8372 22.074 44.7049 22.1087 42.5795Z" fill="#BDBDBD"/>
<path fill-rule="evenodd" clip-rule="evenodd" d="M8.48438 27.4521H28.4644V33.8837H8.48438V27.4521ZM14.369 34.9637H20.8698V41.4645H14.369V34.9637ZM22.0813 34.9775H35.4428V41.4575H22.0813V34.9775ZM14.369 42.5514H20.8698V49.0521H14.369V42.5514ZM22.0882 50.1321H28.6305V56.5637H22.0882V50.1321ZM29.8282 42.5583H36.2667V61.8737H29.8282V42.5583Z" fill="#BDBDBD"/>
<path fill-rule="evenodd" clip-rule="evenodd" d="M35.1523 42.5518H42.9131V48.8518H35.1523V42.5518Z" fill="#BDBDBD"/>
<path d="M51.1988 41.306H46.5742V38.5853H59.1604V41.306H54.5358V53.0268H51.1919V41.306H51.1988ZM63.2658 52.2999C62.0611 51.656 61.1196 50.763 60.4411 49.6276C59.7627 48.4922 59.4165 47.2183 59.4165 45.7991C59.4165 44.3799 59.7558 43.106 60.4411 41.9706C61.1196 40.8353 62.0611 39.9422 63.2658 39.2983C64.4704 38.6545 65.8204 38.3291 67.3227 38.3291C68.825 38.3291 70.1681 38.6545 71.3658 39.2983C72.5634 39.9422 73.505 40.8353 74.1904 41.9706C74.8758 43.106 75.2219 44.3799 75.2219 45.7991C75.2219 47.2183 74.8758 48.4922 74.1904 49.6276C73.505 50.763 72.5634 51.656 71.3658 52.2999C70.1681 52.9437 68.8181 53.2691 67.3227 53.2691C65.8204 53.276 64.4704 52.9506 63.2658 52.2999ZM69.6281 49.8353C70.3134 49.4406 70.8534 48.8937 71.2481 48.1945C71.6427 47.4953 71.8365 46.6922 71.8365 45.7991C71.8365 44.906 71.6427 44.1099 71.2481 43.4037C70.868 42.7192 70.3077 42.1517 69.6281 41.7629C68.9427 41.3683 68.1673 41.1745 67.3158 41.1745C66.4642 41.1745 65.6888 41.3683 65.0034 41.7629C64.3181 42.1576 63.7781 42.7045 63.3834 43.4037C62.9888 44.1029 62.795 44.906 62.795 45.7991C62.795 46.6922 62.9888 47.4883 63.3834 48.1945C63.7781 48.8937 64.3181 49.4406 65.0034 49.8353C65.6888 50.2299 66.4642 50.4237 67.3158 50.4237C68.1742 50.4237 68.9427 50.2299 69.6281 49.8353ZM86.8942 39.2222C87.8358 39.6514 88.5627 40.2537 89.0681 41.036C89.5804 41.8183 89.8296 42.746 89.8296 43.8191C89.8296 44.8783 89.5734 45.806 89.0681 46.5953C88.5558 47.3845 87.8358 47.9937 86.8942 48.4091C85.9527 48.8314 84.8381 49.0391 83.5642 49.0391H80.6565V53.0199H77.3127V38.5783H83.5642C84.8381 38.5783 85.9527 38.7929 86.8942 39.2222ZM85.6619 45.6676C86.1881 45.2314 86.4442 44.6153 86.4442 43.8191C86.4442 43.0091 86.1811 42.386 85.6619 41.9499C85.1358 41.5137 84.3742 41.2991 83.3704 41.2991H80.6496V46.3114H83.3704C84.3811 46.3183 85.1427 46.1037 85.6619 45.6676ZM100.38 41.306H95.7558V38.5853H108.342V41.306H103.717V53.0268H100.373V41.306H100.38ZM112.44 52.2999C111.236 51.656 110.294 50.763 109.616 49.6276C108.937 48.4922 108.591 47.2183 108.591 45.7991C108.591 44.3799 108.93 43.106 109.616 41.9706C110.294 40.8353 111.236 39.9422 112.44 39.2983C113.645 38.6545 114.995 38.3291 116.497 38.3291C118 38.3291 119.343 38.6545 120.54 39.2983C121.738 39.9422 122.68 40.8353 123.365 41.9706C124.05 43.106 124.397 44.3799 124.397 45.7991C124.397 47.2183 124.05 48.4922 123.365 49.6276C122.68 50.763 121.738 51.656 120.54 52.2999C119.343 52.9437 117.993 53.2691 116.497 53.2691C114.995 53.276 113.645 52.9506 112.44 52.2999ZM118.81 49.8353C119.495 49.4406 120.035 48.8937 120.43 48.1945C120.824 47.4953 121.018 46.6922 121.018 45.7991C121.018 44.906 120.824 44.1099 120.43 43.4037C120.05 42.7192 119.489 42.1517 118.81 41.7629C118.124 41.3683 117.349 41.1745 116.497 41.1745C115.646 41.1745 114.87 41.3683 114.185 41.7629C113.5 42.1576 112.96 42.7045 112.565 43.4037C112.17 44.1029 111.977 44.906 111.977 45.7991C111.977 46.6922 112.17 47.4883 112.565 48.1945C112.96 48.8937 113.5 49.4406 114.185 49.8353C114.87 50.2299 115.646 50.4237 116.497 50.4237C117.349 50.4237 118.117 50.2299 118.81 49.8353ZM134.885 41.306H130.26V38.5853H142.847V41.306H138.222V53.0268H134.878V41.306H134.885ZM146.945 52.2999C145.74 51.656 144.799 50.763 144.12 49.6276C143.442 48.4922 143.103 47.2183 143.103 45.7991C143.103 44.3799 143.442 43.106 144.12 41.9706C144.799 40.8353 145.74 39.9422 146.945 39.2983C148.15 38.6545 149.5 38.3291 151.002 38.3291C152.504 38.3291 153.847 38.6545 155.045 39.2983C156.243 39.9422 157.184 40.8353 157.87 41.9706C158.555 43.106 158.901 44.3799 158.901 45.7991C158.901 47.2183 158.555 48.4922 157.87 49.6276C157.184 50.763 156.243 51.656 155.045 52.2999C153.847 52.9437 152.497 53.2691 151.002 53.2691C149.5 53.276 148.15 52.9506 146.945 52.2999ZM153.307 49.8353C153.993 49.4406 154.533 48.8937 154.927 48.1945C155.322 47.4953 155.516 46.6922 155.516 45.7991C155.516 44.906 155.322 44.1099 154.927 43.4037C154.547 42.7192 153.987 42.1517 153.307 41.7629C152.622 41.3683 151.847 41.1745 150.995 41.1745C150.143 41.1745 149.375 41.3683 148.683 41.7629C147.997 42.1576 147.457 42.7045 147.063 43.4037C146.668 44.1029 146.474 44.906 146.474 45.7991C146.474 46.6922 146.668 47.4883 147.063 48.1945C147.457 48.8937 147.997 49.4406 148.683 49.8353C149.368 50.2299 150.143 50.4237 150.995 50.4237C151.853 50.4237 152.622 50.2299 153.307 49.8353ZM172.173 50.3406V53.0268H160.985V38.5783H171.903V41.2576H164.308V44.3937H171.017V46.9899H164.308V50.3337H172.173V50.3406Z" fill="#BDBDBD"/>
</g>
<defs>
<clipPath id="clip0_18_4524">
<rect width="180" height="90" fill="white" transform="translate(0.03125 0.265625)"/>
</clipPath>
</defs>
</svg>
