<svg width="180" height="90" viewBox="0 0 180 90" fill="none" xmlns="http://www.w3.org/2000/svg">
<g id="download 2" clip-path="url(#clip0_8_3803)">
<path id="Vector" d="M22.0774 42.3139C24.2513 42.2724 26.4251 42.3278 28.592 42.2793C28.6059 44.4531 28.6197 46.6201 28.5851 48.7939C26.4043 48.7731 24.2305 48.7731 22.0566 48.7939L22.0636 48.697C22.0843 46.5716 22.0428 44.4393 22.0774 42.3139Z" fill="#3C3C3C"/>
<path id="Vector_2" fill-rule="evenodd" clip-rule="evenodd" d="M8.45312 27.1865H28.4331V33.6181H8.45312V27.1865ZM14.3377 34.6981H20.8385V41.1988H14.3377V34.6981ZM22.05 34.7119H35.4116V41.1919H22.05V34.7119ZM14.3377 42.2858H20.8385V48.7865H14.3377V42.2858ZM22.057 49.8665H28.5993V56.2981H22.057V49.8665ZM29.797 42.2927H36.2354V61.6081H29.797V42.2927Z" fill="#3C3C3C"/>
<path id="Vector_3" fill-rule="evenodd" clip-rule="evenodd" d="M35.1211 42.2861H42.8819V48.5861H35.1211V42.2861Z" fill="#3C3C3C"/>
<path id="Vector_4" d="M51.1676 41.0404H46.543V38.3196H59.1291V41.0404H54.5045V52.7612H51.1607V41.0404H51.1676ZM63.2345 52.0342C62.0299 51.3904 61.0884 50.4973 60.4099 49.3619C59.7314 48.2266 59.3853 46.9527 59.3853 45.5335C59.3853 44.1142 59.7245 42.8404 60.4099 41.705C61.0884 40.5696 62.0299 39.6766 63.2345 39.0327C64.4391 38.3889 65.7891 38.0635 67.2914 38.0635C68.7937 38.0635 70.1368 38.3889 71.3345 39.0327C72.5322 39.6766 73.4737 40.5696 74.1591 41.705C74.8445 42.8404 75.1907 44.1142 75.1907 45.5335C75.1907 46.9527 74.8445 48.2266 74.1591 49.3619C73.4737 50.4973 72.5322 51.3904 71.3345 52.0342C70.1368 52.6781 68.7868 53.0035 67.2914 53.0035C65.7891 53.0104 64.4391 52.685 63.2345 52.0342ZM69.5968 49.5696C70.2822 49.175 70.8222 48.6281 71.2168 47.9289C71.6114 47.2296 71.8053 46.4266 71.8053 45.5335C71.8053 44.6404 71.6114 43.8442 71.2168 43.1381C70.8367 42.4535 70.2765 41.8861 69.5968 41.4973C68.9114 41.1027 68.136 40.9089 67.2845 40.9089C66.433 40.9089 65.6576 41.1027 64.9722 41.4973C64.2868 41.8919 63.7468 42.4389 63.3522 43.1381C62.9576 43.8373 62.7637 44.6404 62.7637 45.5335C62.7637 46.4266 62.9576 47.2227 63.3522 47.9289C63.7468 48.6281 64.2868 49.175 64.9722 49.5696C65.6576 49.9642 66.433 50.1581 67.2845 50.1581C68.143 50.1581 68.9114 49.9642 69.5968 49.5696ZM86.863 38.9566C87.8045 39.3858 88.5314 39.9881 89.0368 40.7704C89.5491 41.5527 89.7984 42.4804 89.7984 43.5535C89.7984 44.6127 89.5422 45.5404 89.0368 46.3296C88.5245 47.1189 87.8045 47.7281 86.863 48.1435C85.9214 48.5658 84.8068 48.7735 83.533 48.7735H80.6253V52.7542H77.2814V38.3127H83.533C84.8068 38.3127 85.9214 38.5273 86.863 38.9566ZM85.6307 45.4019C86.1568 44.9658 86.413 44.3496 86.413 43.5535C86.413 42.7435 86.1499 42.1204 85.6307 41.6842C85.1045 41.2481 84.343 41.0335 83.3391 41.0335H80.6184V46.0458H83.3391C84.3499 46.0527 85.1114 45.8381 85.6307 45.4019ZM100.349 41.0404H95.7245V38.3196H108.311V41.0404H103.686V52.7612H100.342V41.0404H100.349ZM112.409 52.0342C111.205 51.3904 110.263 50.4973 109.585 49.3619C108.906 48.2266 108.56 46.9527 108.56 45.5335C108.56 44.1142 108.899 42.8404 109.585 41.705C110.263 40.5696 111.205 39.6766 112.409 39.0327C113.614 38.3889 114.964 38.0635 116.466 38.0635C117.968 38.0635 119.311 38.3889 120.509 39.0327C121.707 39.6766 122.648 40.5696 123.334 41.705C124.019 42.8404 124.365 44.1142 124.365 45.5335C124.365 46.9527 124.019 48.2266 123.334 49.3619C122.648 50.4973 121.707 51.3904 120.509 52.0342C119.311 52.6781 117.961 53.0035 116.466 53.0035C114.964 53.0104 113.614 52.685 112.409 52.0342ZM118.778 49.5696C119.464 49.175 120.004 48.6281 120.398 47.9289C120.793 47.2296 120.987 46.4266 120.987 45.5335C120.987 44.6404 120.793 43.8442 120.398 43.1381C120.018 42.4535 119.458 41.8861 118.778 41.4973C118.093 41.1027 117.318 40.9089 116.466 40.9089C115.615 40.9089 114.839 41.1027 114.154 41.4973C113.468 41.8919 112.928 42.4389 112.534 43.1381C112.139 43.8373 111.945 44.6404 111.945 45.5335C111.945 46.4266 112.139 47.2227 112.534 47.9289C112.928 48.6281 113.468 49.175 114.154 49.5696C114.839 49.9642 115.615 50.1581 116.466 50.1581C117.318 50.1581 118.086 49.9642 118.778 49.5696ZM134.854 41.0404H130.229V38.3196H142.815V41.0404H138.191V52.7612H134.847V41.0404H134.854ZM146.914 52.0342C145.709 51.3904 144.768 50.4973 144.089 49.3619C143.411 48.2266 143.071 46.9527 143.071 45.5335C143.071 44.1142 143.411 42.8404 144.089 41.705C144.768 40.5696 145.709 39.6766 146.914 39.0327C148.118 38.3889 149.468 38.0635 150.971 38.0635C152.473 38.0635 153.816 38.3889 155.014 39.0327C156.211 39.6766 157.153 40.5696 157.838 41.705C158.524 42.8404 158.87 44.1142 158.87 45.5335C158.87 46.9527 158.524 48.2266 157.838 49.3619C157.153 50.4973 156.211 51.3904 155.014 52.0342C153.816 52.6781 152.466 53.0035 150.971 53.0035C149.468 53.0104 148.118 52.685 146.914 52.0342ZM153.276 49.5696C153.961 49.175 154.501 48.6281 154.896 47.9289C155.291 47.2296 155.484 46.4266 155.484 45.5335C155.484 44.6404 155.291 43.8442 154.896 43.1381C154.516 42.4535 153.956 41.8861 153.276 41.4973C152.591 41.1027 151.815 40.9089 150.964 40.9089C150.112 40.9089 149.344 41.1027 148.651 41.4973C147.966 41.8919 147.426 42.4389 147.031 43.1381C146.637 43.8373 146.443 44.6404 146.443 45.5335C146.443 46.4266 146.637 47.2227 147.031 47.9289C147.426 48.6281 147.966 49.175 148.651 49.5696C149.337 49.9642 150.112 50.1581 150.964 50.1581C151.822 50.1581 152.591 49.9642 153.276 49.5696ZM172.141 50.075V52.7612H160.954V38.3127H171.871V40.9919H164.277V44.1281H170.985V46.7242H164.277V50.0681H172.141V50.075Z" fill="#3C3C3C"/>
</g>
<defs>
<clipPath id="clip0_8_3803">
<rect width="180" height="90" fill="white"/>
</clipPath>
</defs>
</svg>
