<svg width="80" height="80" viewBox="0 0 80 80" fill="none" xmlns="http://www.w3.org/2000/svg">
<path fill-rule="evenodd" clip-rule="evenodd" d="M40 80C62.0914 80 80 62.0914 80 40C80 17.9086 62.0914 0 40 0C17.9086 0 0 17.9086 0 40C0 62.0914 17.9086 80 40 80Z" fill="#5454D4" fill-opacity="0.1"/>
<path d="M52.5777 34.4817C49.7738 34.4817 45.0999 37.8621 40.1526 41.4416C35.8087 44.5845 30.8846 48.1469 28.5828 48.1469C25.2758 48.1469 22.584 45.4642 22.584 42.1684C22.584 38.8725 25.2758 36.1898 28.5828 36.1898C29.1621 36.1898 29.9462 36.4093 30.8863 36.8116L28.7302 40.7412C28.5691 41.0333 28.5948 41.392 28.7936 41.6593C28.9564 41.8797 29.2135 42.0044 29.4817 42.0044C29.5392 42.0044 29.5991 41.9984 29.6574 41.9865L37.3272 40.3885C37.5706 40.3372 37.7806 40.1844 37.9014 39.9666C38.0222 39.7488 38.0419 39.49 37.9554 39.2577L35.2191 31.8631C35.1026 31.5488 34.8129 31.331 34.4778 31.3071C34.1488 31.2798 33.824 31.4557 33.6637 31.7495L31.709 35.3127C30.469 34.7687 29.4175 34.4817 28.5828 34.4817C24.3297 34.4817 20.8701 37.9296 20.8701 42.1684C20.8701 46.4071 24.3297 49.855 28.5828 49.855C31.4408 49.855 36.1618 46.4396 41.1596 42.8243C45.4572 39.7146 50.3299 36.1898 52.5777 36.1898C55.8848 36.1898 58.5765 38.8725 58.5765 42.1684C58.5765 45.4642 55.8848 48.1469 52.5777 48.1469C51.2203 48.1469 48.754 46.9845 45.6329 44.8732C45.2421 44.6068 44.7091 44.711 44.4426 45.1004C44.1761 45.4907 44.2789 46.022 44.6705 46.2867C48.1704 48.6542 50.8313 49.855 52.5777 49.855C56.8308 49.855 60.2904 46.4071 60.2904 42.1684C60.2904 37.9296 56.8308 34.4817 52.5777 34.4817Z" fill="#5454D4"/>
</svg>
