<svg width="575" height="324" viewBox="0 0 575 324" fill="none" xmlns="http://www.w3.org/2000/svg">
<g opacity="0.09" filter="url(#filter0_f_45_2416)">
<path d="M-45.3745 -126.053C31.2459 8.19688 456.527 104.102 359.775 159.321C107.388 203.767 -163.159 171.066 -239.779 36.8166C-442.291 -45.527 -458.754 -257.388 -362.002 -312.607C-265.25 -367.826 -121.995 -260.302 -45.3745 -126.053Z" fill="white"/>
<path d="M-239.345 36.5687L-239.43 36.4185L-239.591 36.3534C-340.705 -4.76083 -395.333 -78.1885 -412.629 -148.187C-429.934 -218.223 -409.864 -284.715 -361.754 -312.173C-313.618 -339.646 -253.831 -326.679 -196.408 -289.959C-139.002 -253.25 -84.0855 -192.871 -45.8087 -125.805C-26.5828 -92.1184 14.4679 -60.8967 63.6077 -32.1601C112.621 -3.49758 169.77 22.7417 221.545 46.5135L222.006 46.725C273.927 70.5637 320.362 91.9034 347.779 110.727C354.629 115.43 360.277 119.966 364.52 124.333C368.768 128.704 371.582 132.88 372.809 136.859C374.03 140.817 373.686 144.599 371.578 148.241C369.467 151.888 365.567 155.429 359.602 158.844C233.48 181.045 102.842 183.971 -5.82681 164.588C-114.547 145.194 -201.148 103.495 -239.345 36.5687Z" stroke="white"/>
</g>
<defs>
<filter id="filter0_f_45_2416" x="-619.258" y="-527.406" width="1193.27" height="905.385" filterUnits="userSpaceOnUse" color-interpolation-filters="sRGB">
<feFlood flood-opacity="0" result="BackgroundImageFix"/>
<feBlend mode="normal" in="SourceGraphic" in2="BackgroundImageFix" result="shape"/>
<feGaussianBlur stdDeviation="100" result="effect1_foregroundBlur_45_2416"/>
</filter>
</defs>
</svg>
